<?xml version="1.0" encoding="UTF-8"?>
<svg width="257.23mm" height="196.75mm" version="1.1" viewBox="0 0 911.42859 697.14285" xmlns="http://www.w3.org/2000/svg">
 <g transform="translate(78.571 -60.934)">
  <rect x="-78.571" y="60.934" width="911.43" height="697.14" ry="0" fill="#fff" fill-rule="evenodd"/>
  <rect transform="matrix(.87408 .48579 -.51435 .85758 0 0)" x="420.1" y="-102.04" width="6.9555" height="50.5" ry="1.9905" fill="#607d8b" fill-rule="evenodd"/>
  <rect transform="matrix(0,1,1,0,0,0)" x="116.88" y="365.13" width="69.422" height="7.6344" ry=".22323" fill="#607d8b" fill-rule="evenodd"/>
  <rect transform="matrix(.87408 .48579 -.51435 .85758 0 0)" x="449.47" y="-120.54" width="7.3875" height="64.67" ry="1.9905" fill="#607d8b" fill-rule="evenodd"/>
  <rect transform="matrix(.87408 -.48579 -.51435 -.85758 0 0)" x="247.12" y="-400.92" width="7.2579" height="55.923" ry="1.9905" fill="#607d8b" fill-rule="evenodd"/>
  <rect x="396.96" y="163.71" width="26.264" height="8.525" ry="1.7683" fill="#607d8b" fill-rule="evenodd"/>
  <rect transform="matrix(.91904 -.39417 -.61365 -.78958 0 0)" x="180.38" y="-370.78" width="8.2996" height="46.497" ry="1.6684" fill="#607d8b" fill-rule="evenodd"/>
  <rect transform="matrix(0,1,1,0,0,0)" x="116.88" y="392.99" width="233.71" height="7.6344" ry=".22323" fill="#607d8b" fill-rule="evenodd"/>
  <rect transform="matrix(0,1,1,0,0,0)" x="116.88" y="421.21" width="233.71" height="7.6344" ry=".22323" fill="#607d8b" fill-rule="evenodd"/>
  <rect x="-43.42" y="89.908" width="703.9" height="33.529" ry="2.408" fill="#ba68c8" fill-rule="evenodd"/>
  <path d="m688.4 413.56c4.3329 17.695-1.9512 27.902-3.5373 41.422l-13.856 13.772c-22.959 29.697-76.014 55.862-90.316 65.716l14.032 25.642 34.098 97.002-2.0308 7.3174c4.8722 12.151-4.386 5.7971-15.612 5.0011l-72.747-136.55 11.585-21.664 54.15-57.113 14.842-29.945z" fill="#4e342e" fill-rule="evenodd"/>
  <rect transform="matrix(.90724 .42062 -.43977 .89811 0 0)" x="802.1" y="142.5" width="12.903" height="180.44" ry="3.583" fill="#37474f" fill-rule="evenodd"/>
  <path d="m619.09 477.11c22.885-2.3333 35.041 5.4264 63.135 4.0406 14.02-6.7833 18.049-17.563 22.223-28.284-26.472 1.0984-53.52 1.0461-76.772 8.5863-5.4079 4.5827-8.5626 9.7286-8.5863 15.657z" fill="#607d8b" fill-rule="evenodd"/>
  <path d="m629.26 650.61c-6.6915 10.596-12.768 10.958-22.506 8.4118-7.6134 4.7459-11.718 10.991-19.737 13.173-6.6752 2.7481-7.6239 1.9251-17.805 5.393-2.6978 1.7517-1.9901 7.516-2.3946 9.3628 23.08 0.58958 52.849-9.3282 69.273-16.649-0.74559-6.7901-0.51458-9.8615-6.8306-19.692z" fill="#502d16" fill-rule="evenodd"/>
  <rect x="27.771" y="377.39" width="403.74" height="231.96" ry="6.7824" fill="#ba68c8" fill-rule="evenodd"/>
  <rect x="32.056" y="383.1" width="396.59" height="120.18" ry="3.5139" fill="#fff" fill-rule="evenodd"/>
  <rect x="27.771" y="378.28" width="404.22" height="7.6344" ry=".22323" fill="#546e7a" fill-rule="evenodd"/>
  <rect x="27.771" y="599.18" width="403.97" height="11.325" ry=".33113" fill="#546e7a" fill-rule="evenodd"/>
  <rect x="27.771" y="495.61" width="403.97" height="11.325" ry=".33113" fill="#546e7a" fill-rule="evenodd"/>
  <rect x="230.75" y="348.1" width="6.1235" height="158.21" ry=".72848" fill="#546e7a" fill-rule="evenodd"/>
  <rect x="423.48" y="389.95" width="60.824" height="9.601" ry=".28073" fill="#546e7a" fill-rule="evenodd"/>
  <rect x="421.34" y="377.39" width="10.164" height="231.96" ry="1.0681" fill="#546e7a" fill-rule="evenodd"/>
  <rect x="27.771" y="380.6" width="10.164" height="228.74" ry="1.0533" fill="#546e7a" fill-rule="evenodd"/>
  <path d="m290.9 344.75c25.98 3.143 35.848-5.2101 44.952-15.152-2.8468 0.0387-4.673-6.6306-14.759-3.7088 8.748-3.458-3.8059-29.403-10.495-25.586 5.2167 8.2472-3.3886 38.028-19.698 44.447z" fill="#546e7a" fill-rule="evenodd"/>
  <rect x="15.649" y="344.82" width="428.46" height="9.7773" ry=".28589" fill="#546e7a" fill-rule="evenodd"/>
  <rect x="11.72" y="376.97" width="435.96" height="9.7773" ry=".28589" fill="#546e7a" fill-rule="evenodd"/>
  <rect transform="matrix(.96593 .25882 -.25882 .96593 0 0)" x="107.81" y="328.19" width="6.1235" height="36.956" ry=".17017" fill="#546e7a" fill-rule="evenodd"/>
  <rect transform="matrix(.96593 -.25882 .25882 .96593 0 0)" x="329.45" y="446.99" width="6.1235" height="36.956" ry=".17017" fill="#546e7a" fill-rule="evenodd"/>
  <path d="m185.14 344.75c-25.98 3.143-35.848-5.2101-44.952-15.152 2.8468 0.0387 4.673-6.6306 14.759-3.7088-8.748-3.458 3.8059-29.403 10.495-25.586-5.2167 8.2472 3.3886 38.028 19.698 44.447z" fill="#546e7a" fill-rule="evenodd"/>
  <rect x="177.22" y="307.83" width="121.43" height="40" ry="2.3509" fill="#546e7a" fill-rule="evenodd"/>
  <ellipse cx="311.14" cy="345.15" rx="13.571" ry="5" fill="#546e7a" fill-rule="evenodd"/>
  <ellipse cx="167.19" cy="345.15" rx="13.571" ry="5" fill="#546e7a" fill-rule="evenodd"/>
  <path d="m410.48 461.44c7.4858-5.7187 4.7862-10.839-16.643-11.351-15.861 0.049-22.644 5.7582-14.605 11.351-3.6072 11.562-1.6698 20.995 0 30.53h31.249c2.7173-10.699 2.7173-20.875 0-30.53z" fill="#d38d5f" fill-rule="evenodd"/>
  <path d="m350.4 452.02c-19.543 0.19237-21.92 20.42-15.175 39.945h31.249c7.5946-30.34-2.9618-39.97-16.073-39.945z" fill="#d38d5f" fill-rule="evenodd"/>
  <path d="m324.49 456.4c-12.126-4.3737-21.56 3.0436-33.528-1.0947-3.6072 11.562 0.80003 25.593 0.56995 36.66h31.249c2.7173-10.699 4.4271-25.911 1.7098-35.566z" fill="#d38d5f" fill-rule="evenodd"/>
  <path d="m279.41 461.44c7.4858-5.7187 4.7862-10.839-16.643-11.351-15.861 0.049-22.644 5.7582-14.605 11.351-3.6072 11.562-1.6698 20.995 0 30.53h31.249c2.7173-10.699 2.7173-20.875 0-30.53z" fill="#d38d5f" fill-rule="evenodd"/>
  <path d="m349.55 454.05c-10.283-0.50336-16.509 9.9755-15.734 19.24-0.0132 5.6721 1.1275 11.297 2.8535 16.682h28.23c2.1106-10.234 4.7146-23.14-3.0273-31.865-3.3013-3.2374-7.8866-4.2328-12.322-4.0566z" fill="#fff9c4" fill-rule="evenodd"/>
  <path d="m392.41 452.11c-4.817 0.50981-11.889 0.058-14.564 4.7148 0.50811 2.7152 5.3172 3.1225 2.9844 6.2656-2.6456 8.753-1.6285 18.057 0.0859 26.879 9.2436-0.31157 19.469 0.62203 28.102-0.46484 2.1786-9.4935 2.0384-19.545-0.80859-28.809 1.8644-1.1987 6.421-4.8365 2.1855-6.166-5.6647-2.2352-11.977-2.3006-17.984-2.4199z" fill="#fff9c4" fill-rule="evenodd"/>
  <path d="m314.88 456.99c-7.4085 0.52672-15.28 2.6625-22.557 0.95312-2.2235 10.642 0.93569 21.354 1.1992 32.025 9.1232-0.36014 19.375 0.7139 27.807-0.52539 2.1442-10.46 3.6966-21.103 1.4512-31.5-2.5506-0.78864-5.2385-1.0625-7.9004-0.95312z" fill="#fff9c4" fill-rule="evenodd"/>
  <path d="m261.34 452.11c-4.817 0.50981-11.889 0.058-14.564 4.7148 0.50811 2.7152 5.3172 3.1225 2.9844 6.2656-2.6456 8.753-1.6285 18.057 0.0859 26.879 9.2436-0.31157 19.469 0.62203 28.102-0.46484 2.1786-9.4935 2.0384-19.545-0.80859-28.809 1.8644-1.1987 6.421-4.8365 2.1855-6.166-5.6647-2.2352-11.977-2.3006-17.984-2.4199z" fill="#fff9c4" fill-rule="evenodd"/>
  <path d="m410.48 461.44c7.4858-5.7187 4.7862-10.839-16.643-11.351-15.861 0.049-22.644 5.7582-14.605 11.351-3.6072 11.562-1.6698 20.995 0 30.53h31.249c2.7173-10.699 2.7173-20.875 0-30.53z" fill="#d38d5f" fill-rule="evenodd"/>
  <path d="m350.4 452.02c-19.543 0.19237-21.92 20.42-15.175 39.945h31.249c7.5946-30.34-2.9618-39.97-16.073-39.945z" fill="#d38d5f" fill-rule="evenodd"/>
  <path d="m324.49 456.4c-12.126-4.3737-21.56 3.0436-33.528-1.0947-3.6072 11.562 0.80003 25.593 0.56995 36.66h31.249c2.7173-10.699 4.4271-25.911 1.7098-35.566z" fill="#d38d5f" fill-rule="evenodd"/>
  <path d="m279.41 461.44c7.4858-5.7187 4.7862-10.839-16.643-11.351-15.861 0.049-22.644 5.7582-14.605 11.351-3.6072 11.562-1.6698 20.995 0 30.53h31.249c2.7173-10.699 2.7173-20.875 0-30.53z" fill="#d38d5f" fill-rule="evenodd"/>
  <path d="m349.55 454.05c-10.283-0.50336-16.509 9.9755-15.734 19.24-0.0132 5.6721 1.1275 11.297 2.8535 16.682h28.23c2.1106-10.234 4.7146-23.14-3.0273-31.865-3.3013-3.2374-7.8866-4.2328-12.322-4.0566z" fill="#fff9c4" fill-rule="evenodd"/>
  <path d="m392.41 452.11c-4.817 0.50981-11.889 0.058-14.564 4.7148 0.50811 2.7152 5.3172 3.1225 2.9844 6.2656-2.6456 8.753-1.6285 18.057 0.0859 26.879 9.2436-0.31157 19.469 0.62203 28.102-0.46484 2.1786-9.4935 2.0384-19.545-0.80859-28.809 1.8644-1.1987 6.421-4.8365 2.1855-6.166-5.6647-2.2352-11.977-2.3006-17.984-2.4199z" fill="#fff9c4" fill-rule="evenodd"/>
  <path d="m314.88 456.99c-7.4085 0.52672-15.28 2.6625-22.557 0.95312-2.2235 10.642 0.93569 21.354 1.1992 32.025 9.1232-0.36014 19.375 0.7139 27.807-0.52539 2.1442-10.46 3.6966-21.103 1.4512-31.5-2.5506-0.78864-5.2385-1.0625-7.9004-0.95312z" fill="#fff9c4" fill-rule="evenodd"/>
  <path d="m261.34 452.11c-4.817 0.50981-11.889 0.058-14.564 4.7148 0.50811 2.7152 5.3172 3.1225 2.9844 6.2656-2.6456 8.753-1.6285 18.057 0.0859 26.879 9.2436-0.31157 19.469 0.62203 28.102-0.46484 2.1786-9.4935 2.0384-19.545-0.80859-28.809 1.8644-1.1987 6.421-4.8365 2.1855-6.166-5.6647-2.2352-11.977-2.3006-17.984-2.4199z" fill="#fff9c4" fill-rule="evenodd"/>
  <path d="m202.43 474.47c-24.046 0.0926-26.969 9.8307-18.671 19.231h38.447c9.3442-14.607-3.6441-19.243-19.776-19.231z" fill="#d38d5f" fill-rule="evenodd"/>
  <path d="m201.39 475.45c-12.652-0.24233-20.313 4.8025-19.359 9.2629-0.0162 2.7308 1.3872 5.4387 3.5109 8.0311h34.734c2.5968-4.9269 5.8007-11.14-3.7247-15.341-4.0618-1.5586-9.7034-2.0378-15.161-1.953z" fill="#fff9c4" fill-rule="evenodd"/>
  <path d="m202.43 474.47c-24.046 0.0926-26.969 9.8307-18.671 19.231h38.447c9.3442-14.607-3.6441-19.243-19.776-19.231z" fill="#d38d5f" fill-rule="evenodd"/>
  <path d="m201.39 475.45c-12.652-0.24233-20.313 4.8025-19.359 9.2629-0.0162 2.7308 1.3872 5.4387 3.5109 8.0311h34.734c2.5968-4.9269 5.8007-11.14-3.7247-15.341-4.0618-1.5586-9.7034-2.0378-15.161-1.953z" fill="#fff9c4" fill-rule="evenodd"/>
  <path d="m200.62 472.65c-20.015 2.0265-21.623 7.0112-23.234 11.996 2.3626 4.8689 5.5989 1.0006 8.5863-0.3788 5.2515 1.7149 7.8355 0.46592 10.102-1.1364 1.8198 3.8487 5.7147 4.5676 9.2176 3.0305 1.6648-0.2081 7.4319-2.4286 7.0711-2.7779-0.48945-0.47385 7.8287 1.3643 7.8287 1.7678 2.8117 1.3085 5.2968 1.7676 6.4397-1.2627-1.7088-6.2323-5.703-11.648-26.011-11.238z" fill="#fdd835" fill-rule="evenodd"/>
  <path d="m200.73 474.65c-7.3424 1.1658-18.725 1.272-21.078 9.9238 2.687 1.6335 5.4717-4.6284 8.5742-1.7539 3.6334 2.6679 7.9995-4.6529 9.4957-0.84578 2.3845 5.5002 8.9424 1.6458 12.844 0.25789 4.1636-2.5832 9.3179 1.6357 13.678 1.7852-0.66717-6.8679-9.4764-8.8042-15.443-9.1602-2.6842-0.21493-5.3789-0.25664-8.0703-0.20703z" fill="#ffeb3b" fill-rule="evenodd"/>
  <path d="m202.43 449.73c-24.046 0.0926-26.969 9.8307-18.671 19.231h38.447c9.3442-14.607-3.6441-19.243-19.776-19.231z" fill="#d38d5f" fill-rule="evenodd"/>
  <path d="m201.39 450.7c-12.652-0.24233-20.313 4.8025-19.359 9.2629-0.0162 2.7308 1.3872 5.4387 3.5109 8.0311h34.734c2.5968-4.9269 5.8007-11.14-3.7247-15.341-4.0618-1.5586-9.7034-2.0378-15.161-1.953z" fill="#fff9c4" fill-rule="evenodd"/>
  <path d="m202.43 449.73c-24.046 0.0926-26.969 9.8307-18.671 19.231h38.447c9.3442-14.607-3.6441-19.243-19.776-19.231z" fill="#d38d5f" fill-rule="evenodd"/>
  <path d="m201.39 450.7c-12.652-0.24233-20.313 4.8025-19.359 9.2629-0.0162 2.7308 1.3872 5.4387 3.5109 8.0311h34.734c2.5968-4.9269 5.8007-11.14-3.7247-15.341-4.0618-1.5586-9.7034-2.0378-15.161-1.953z" fill="#fff9c4" fill-rule="evenodd"/>
  <path d="m200.62 447.9c-20.015 2.0265-21.623 7.0112-23.234 11.996 2.3626 4.8689 5.5989 1.0006 8.5863-0.3788 5.2515 1.7149 7.8355 0.46592 10.102-1.1364 1.8198 3.8487 5.7147 4.5676 9.2176 3.0305 1.6648-0.2081 7.4319-2.4286 7.0711-2.7779-0.48945-0.47385 7.8287 1.3643 7.8287 1.7678 2.8117 1.3085 5.2968 1.7676 6.4397-1.2627-1.7088-6.2323-5.703-11.648-26.011-11.238z" fill="#e53935" fill-rule="evenodd"/>
  <path d="m200.73 449.9c-7.3424 1.1658-18.725 1.272-21.078 9.9238 2.687 1.6335 5.4717-4.6284 8.5742-1.7539 3.6334 2.6679 7.9995-4.6529 9.4957-0.84578 2.3845 5.5002 8.9424 1.6458 12.844 0.25789 4.1636-2.5832 9.3179 1.6357 13.678 1.7852-0.66717-6.8679-9.4764-8.8042-15.443-9.1602-2.6842-0.21493-5.3789-0.25664-8.0703-0.20703z" fill="#f44336" fill-rule="evenodd"/>
  <rect x="125.35" y="474.57" width="43.659" height="19.276" ry=".63265" fill="#d38d5f" fill-rule="evenodd"/>
  <rect x="125.35" y="476.43" width="41.079" height="3.4632" ry=".11366" fill="#fff59d" fill-rule="evenodd"/>
  <rect x="125.35" y="481.8" width="41.079" height="3.4632" ry=".11366" fill="#ffeb3b" fill-rule="evenodd"/>
  <rect x="125.35" y="487.92" width="41.079" height="3.4632" ry=".11366" fill="#fff9c4" fill-rule="evenodd"/>
  <rect x="125.35" y="487.92" width="41.079" height="3.4632" ry=".11366" fill="#fff59d" fill-rule="evenodd"/>
  <rect x="125.35" y="448.14" width="43.659" height="19.276" ry=".63265" fill="#d38d5f" fill-rule="evenodd"/>
  <rect x="125.35" y="450" width="41.079" height="3.4632" ry=".11366" fill="#fff59d" fill-rule="evenodd"/>
  <rect x="125.35" y="455.37" width="41.079" height="3.4632" ry=".11366" fill="#ffeb3b" fill-rule="evenodd"/>
  <rect x="125.35" y="461.49" width="41.079" height="3.4632" ry=".11366" fill="#fff9c4" fill-rule="evenodd"/>
  <rect x="125.35" y="461.49" width="41.079" height="3.4632" ry=".11366" fill="#fff59d" fill-rule="evenodd"/>
  <ellipse cx="139.65" cy="445.44" rx="3.1672" ry="2.7148" fill="#ff1744" fill-rule="evenodd"/>
  <ellipse cx="145.57" cy="445.44" rx="3.1672" ry="2.7148" fill="#ff1744" fill-rule="evenodd"/>
  <ellipse cx="151.62" cy="445.44" rx="3.1672" ry="2.7148" fill="#ff1744" fill-rule="evenodd"/>
  <ellipse cx="139.65" cy="472.08" rx="3.1672" ry="2.7148" fill="#ff1744" fill-rule="evenodd"/>
  <ellipse cx="145.57" cy="472.08" rx="3.1672" ry="2.7148" fill="#ff1744" fill-rule="evenodd"/>
  <ellipse cx="151.45" cy="472.08" rx="3.1672" ry="2.7148" fill="#ff1744" fill-rule="evenodd"/>
  <path d="m40.633 459.64 15.366 34.85c2.1619 0.83273 6.9216 0.30015 9.6926-1.0102 5.6157-3.0837 0.70491-16.518-4.4917-15.784 3.5309 1.3033 3.5252-13.286-6.3829-14.268 6.9955-2.0021-7.6747-22.354-14.184-3.7881z" fill="#d38d5f" fill-rule="evenodd"/>
  <path d="m42.123 459.96 14.71 33.036c1.3924 0.6119 2.9953-0.25069 2.9953-0.25069-4.3079-11.985-9.0008-23.988-16.455-35.147-1.2892 1.1483-1.2508 2.3616-1.2508 2.3616z" fill="#fff9c4" fill-rule="evenodd"/>
  <path d="m58.599 459.64 15.366 34.85c2.1619 0.83273 6.9216 0.30015 9.6926-1.0102 5.6157-3.0837 0.70492-16.518-4.4917-15.784 3.5309 1.3033 3.5252-13.286-6.3829-14.268 6.9955-2.0021-7.6747-22.354-14.184-3.7881z" fill="#d38d5f" fill-rule="evenodd"/>
  <path d="m60.089 459.96 14.71 33.036c1.3924 0.6119 2.9953-0.25069 2.9953-0.25069-4.3079-11.985-9.0008-23.988-16.455-35.147-1.2892 1.1483-1.2508 2.3616-1.2508 2.3616z" fill="#fff9c4" fill-rule="evenodd"/>
  <path d="m75.876 459.64 15.366 34.85c2.1619 0.83273 6.9216 0.30015 9.6925-1.0102 5.6157-3.0837 0.70491-16.518-4.4917-15.784 3.5309 1.3033 3.5252-13.286-6.3829-14.268 6.9955-2.0021-7.6747-22.354-14.184-3.7881z" fill="#d38d5f" fill-rule="evenodd"/>
  <path d="m77.366 459.96 14.71 33.036c1.3924 0.6119 2.9953-0.25069 2.9953-0.25069-4.3079-11.985-9.0008-23.988-16.455-35.147-1.2892 1.1483-1.2508 2.3616-1.2508 2.3616z" fill="#fff9c4" fill-rule="evenodd"/>
  <path d="m75.876 459.64 15.366 34.85c2.1619 0.83273 6.9216 0.30015 9.6925-1.0102 5.6157-3.0837 0.70491-16.518-4.4917-15.784 3.5309 1.3033 3.5252-13.286-6.3829-14.268 6.9955-2.0021-7.6747-22.354-14.184-3.7881z" fill="#d38d5f" fill-rule="evenodd"/>
  <path d="m77.366 459.96 14.71 33.036c1.3924 0.6119 2.9953-0.25069 2.9953-0.25069-4.3079-11.985-9.0008-23.988-16.455-35.147-1.2892 1.1483-1.2508 2.3616-1.2508 2.3616z" fill="#fff9c4" fill-rule="evenodd"/>
  <path d="m93.847 459.64 15.366 34.85c2.1619 0.83273 6.9216 0.30015 9.6926-1.0102 5.6157-3.0837 0.70492-16.518-4.4917-15.784 3.5309 1.3033 3.5252-13.286-6.3829-14.268 6.9955-2.0021-7.6747-22.354-14.184-3.7881z" fill="#d38d5f" fill-rule="evenodd"/>
  <path d="m95.337 459.96 14.71 33.036c1.3924 0.6119 2.9953-0.25069 2.9953-0.25069-4.3079-11.985-9.0008-23.988-16.455-35.147-1.2892 1.1483-1.2508 2.3616-1.2508 2.3616z" fill="#fff9c4" fill-rule="evenodd"/>
  <path d="m588.75 604.41 118.95 7.8287c-4.5292-0.89454-7.3286 1.2378-10.51 2.7013l-103.36-5.5532z" fill="#455a64" fill-opacity=".56983" fill-rule="evenodd"/>
  <rect transform="matrix(.84379 .53668 -.53668 .84379 0 0)" x="560.65" y="382.31" width="10.728" height="37.829" ry="4.7295" fill="#37474f" fill-rule="evenodd"/>
  <rect x="236.76" y="624.1" width="10.859" height="34.85" ry="4.7295" fill="#37474f" fill-rule="evenodd"/>
  <rect x="230.28" y="651.4" width="346.71" height="9.459" ry="2.7092" fill="#37474f" fill-rule="evenodd"/>
  <rect x="230.28" y="619.26" width="480.71" height="12.316" ry="6.1581" fill="#37474f" fill-rule="evenodd"/>
  <rect transform="matrix(.84379 .53668 -.53668 .84379 0 0)" x="630.26" y="338.03" width="10.728" height="37.829" ry="4.7295" fill="#37474f" fill-rule="evenodd"/>
  <path d="m233.9 520.78a105.79 105.79 0 0 0 -105.79 105.79 105.79 105.79 0 0 0 105.79 105.79 105.79 105.79 0 0 0 105.79 -105.79 105.79 105.79 0 0 0 -105.79 -105.79zm0 18.33a87.459 87.459 0 0 1 87.459 87.459 87.459 87.459 0 0 1 -87.459 87.462 87.459 87.459 0 0 1 -87.462 -87.462 87.459 87.459 0 0 1 87.462 -87.459z" fill="#455a64" fill-rule="evenodd"/>
  <circle cx="233.9" cy="626.57" r="20.948" fill="#546e7a" fill-opacity=".63128" fill-rule="evenodd"/>
  <circle cx="233.9" cy="626.57" r="14.926" fill="#455a64" fill-rule="evenodd"/>
  <rect x="230.36" y="530.73" width="7.0778" height="191.68" ry=".58299" fill="#455a64" fill-rule="evenodd"/>
  <rect transform="rotate(90)" x="623.03" y="-329.74" width="7.0778" height="191.68" ry=".58299" fill="#455a64" fill-rule="evenodd"/>
  <rect transform="matrix(-.70711 .70711 -.70711 -.70711 0 0)" x="274.12" y="-704.29" width="7.0778" height="191.68" ry=".58299" fill="#455a64" fill-rule="evenodd"/>
  <rect transform="matrix(-.70711 -.70711 .70711 -.70711 0 0)" x="-611.99" y="-373.5" width="7.0778" height="191.68" ry=".58299" fill="#455a64" fill-rule="evenodd"/>
  <rect transform="matrix(-.70711 -.70711 .70711 -.70711 0 0)" x="-611.99" y="-373.5" width="7.0778" height="191.68" ry=".58299" fill="#455a64" fill-rule="evenodd"/>
  <path d="m707.39 540.07a89.361 89.361 0 0 0 -89.363 89.361 89.361 89.361 0 0 0 89.363 89.363 89.361 89.361 0 0 0 89.361 -89.363 89.361 89.361 0 0 0 -89.361 -89.361zm0 15.483a73.878 73.878 0 0 1 73.877 73.877 73.878 73.878 0 0 1 -73.877 73.88 73.878 73.878 0 0 1 -73.88 -73.88 73.878 73.878 0 0 1 73.88 -73.877z" fill="#455a64" fill-rule="evenodd"/>
  <circle cx="707.39" cy="629.43" r="17.695" fill="#546e7a" fill-opacity=".63128" fill-rule="evenodd"/>
  <circle cx="707.39" cy="629.43" r="12.608" fill="#455a64" fill-rule="evenodd"/>
  <rect x="704.4" y="548.47" width="5.9787" height="161.91" ry=".49245" fill="#455a64" fill-rule="evenodd"/>
  <rect transform="rotate(90)" x="626.44" y="-788.34" width="5.9787" height="161.91" ry=".49245" fill="#455a64" fill-rule="evenodd"/>
  <rect transform="matrix(-.70711 .70711 -.70711 -.70711 0 0)" x="-58.115" y="-1026.2" width="5.9787" height="161.91" ry=".49245" fill="#455a64" fill-rule="evenodd"/>
  <rect transform="matrix(-.70711 -.70711 .70711 -.70711 0 0)" x="-948.26" y="-25.83" width="5.9787" height="161.91" ry=".49245" fill="#455a64" fill-rule="evenodd"/>
  <rect transform="matrix(-.70711 -.70711 .70711 -.70711 0 0)" x="-948.26" y="-25.83" width="5.9787" height="161.91" ry=".49245" fill="#455a64" fill-rule="evenodd"/>
  <rect transform="matrix(.84379 .53668 -.53668 .84379 0 0)" x="830.7" y="210.55" width="10.728" height="37.829" ry="4.7295" fill="#37474f" fill-rule="evenodd"/>
  <rect transform="matrix(.84379 .53668 -.53668 .84379 0 0)" x="698.14" y="294.86" width="10.728" height="37.829" ry="4.7295" fill="#37474f" fill-rule="evenodd"/>
  <circle cx="588.19" cy="628.42" r="24.009" fill="#546e7a" fill-opacity=".63128" fill-rule="evenodd"/>
  <circle cx="588.19" cy="628.42" r="17.106" fill="#455a64" fill-rule="evenodd"/>
  <path d="m588.75 652.44 119.96-5.3033c-5.7792 0.091-9.9172-1.9638-11.631-3.4905l-93.494 3.2172c-3.9429 2.9647-8.2597 5.1825-14.831 5.5766z" fill="#455a64" fill-opacity=".56983" fill-rule="evenodd"/>
  <path d="m641.16 399.45c-58.036 5.4283-114.85 2.324-174.14 16.528-5.442 10.099-1.7268 16.536-0.99823 24.167l100.76 121.06 4.9494 2.924 12.516 0.2007 2.5452-3.251-0.34834-4.9229-46.1-86.342-7.2692-15.385 108.64 15.036c20.922-0.26141 31.931-5.93 38.077-14.251l5.3785-43.596z" fill="#6d4c41" fill-rule="evenodd"/>
  <path d="m510.08 385.59-14.469 4.2646-8.268 12.083 3.445 5.686 4.6507-0.35531 15.675 0.17765-0.51676-6.7522 2.5837-0.71083 4.6508-10.128z" fill="#f95" fill-rule="evenodd"/>
  <path d="m600.08 295.01-27.202 50.017-67.953 44.667 9.5526 5.706 65.694-23.732c2.9531-1.49 12.175-8.4553 14.38-10.686l18.214-49.339z" fill="#f95" fill-rule="evenodd"/>
  <path d="m619.2 213.9 6.5018 25.362-23.516 26.206 0.0975-23.567-3.7504-19.324z" fill="#ffb380" fill-rule="evenodd"/>
  <path d="m625.45 231.47c-7.7719 8.7014-6.4501 18.283-25.085 24.932-30.144 63.611 31.421 109.78 17.493 154.72 2.0406 2.314 20.568-6.6272 22.901-5.0173 19.607 13.529 34.352 20.137 56.381 9.6478-24.79-53.325-21.225-150.2-71.69-184.29z" fill="#ab47bc" fill-rule="evenodd"/>
  <path d="m599.28 305.31-24.48 41.628-67.953 44.667 9.5526 5.706 65.694-25.161c2.9531-1.49 12.175-8.8124 14.38-11.043l25.537-41.492z" fill="#ffb380" fill-rule="evenodd"/>
  <path d="m629.12 257.41c-5.8537-1.386-11.987-0.6934-18.63 3.7903l-23.595 48.954 34.934 23.924 18.223-53.163c-0.56875-9.2105-3.9322-17.171-10.932-23.506z" fill="#8e24aa" fill-rule="evenodd"/>
  <path d="m512.01 387.5-14.469 4.2646-8.268 12.083 3.445 5.686 5.2757 1.3411 11.657-0.89377 2.8761-7.3772 2.5837-0.71083 4.6508-10.128z" fill="#ffb380" fill-rule="evenodd"/>
  <path d="m574.54 191.58c0.24953 4.4658 2.0179 6.252 3.3481 8.8112-1.3679 6.2987-1.8853 11.858-1.98 17.05l5.6265-0.0232-0.32117 5.7496 3.5256 4.6651c-1.0389 3.036-2.2724 6.201-0.46476 7.353 10.762 2.3626 20.762-1.7928 31.142-2.6893l7.2459-14.493-1.2246-27.465s-8.5552-10.481-10.225-10.603c-1.6699-0.12211-24.909-4.048-24.909-4.048l-12.876 10.745z" fill="#ffb380" fill-rule="evenodd"/>
  <path d="m575.04 178.01c-4.931 5.4963-3.2837 10.223-0.97455 14.873l16.694-4.1511 6.4111 5.2576c1.2053-0.25632 3.8407 12.269 4.9172 12.138 0.92695-0.11144 0.31317-12.899 1.1275-12.892 6.1714 0.0537 8.8808 3.8967 4.6754 16.884l8.9909 8.6529 6.0881 8.9807c5.9772-13.409 9.1779-29.141 1.1591-53.468-3.0706-1.8002-0.44521-0.2901-4.1183 1.082-15.079-6.3871-29.998 0.37681-44.971 2.6439z" fill="#424242" fill-rule="evenodd"/>
  <path d="m581.3 221.53c7.189-2.2403 15.567-5.3564 15.567-5.3564-3.6613 4.4634-7.4847 8.725-12.767 11.171l-2.9132-4.1563z" fill="#fff" fill-rule="evenodd"/>
  <path d="m580.52 197.38c3.6213-2.3303 7.5044-4.0519 12.329-3.5836" fill="none" stroke="#000" stroke-width="1.803px"/>
  <ellipse transform="matrix(.99323 -.11613 .11613 .99323 0 0)" cx="557.82" cy="266.14" rx="2.4255" ry="2.1275" fill="#1a1a1a" fill-rule="evenodd"/>
  <rect transform="matrix(1 0 .47052 .88239 0 0)" x="248.43" y="652.96" width="10.84" height="120.09" ry="2.2416" fill="#455a64" fill-opacity=".82682" fill-rule="evenodd"/>
  <rect transform="matrix(.95045 -.31089 .31089 .95045 0 0)" x="339.86" y="718.88" width="30.422" height="7.9153" ry="3.0649" fill="#455a64" fill-opacity=".82682" fill-rule="evenodd"/>
  <rect transform="matrix(.96096 -.27668 .27668 .96096 0 0)" x="388.07" y="820.59" width="29.8" height="7.071" ry="2.0203" fill="#455a64" fill-opacity=".82682" fill-rule="evenodd"/>
  <path d="m582.59 544.91c-6.3081 10.828-12.368 11.408-22.19 9.2116-7.4388 5.0152-11.317 11.403-19.253 13.87-6.5727 2.9852-7.5501 2.1966-17.6 6.0266-2.6334 1.8471-1.72 7.5824-2.0581 9.4425 23.086-0.23651 52.482-11.213 68.633-19.116-0.98805-6.7591-0.86707-9.8368-7.5307-19.435z" fill="#502d16" fill-rule="evenodd"/>
  <rect transform="matrix(.84379 .53668 -.53668 .84379 0 0)" x="762.93" y="253.65" width="10.728" height="37.829" ry="4.7295" fill="#37474f" fill-rule="evenodd"/>
  <circle cx="503.5" cy="401.3" r="4.9876" fill="#546e7a" fill-opacity=".82682" fill-rule="evenodd"/>
  <rect transform="matrix(-.3697 .92915 -.92915 -.3697 0 0)" x="181.69" y="-621.07" width="10.666" height="44.676" ry="4.7295" fill="#546e7a" fill-rule="evenodd"/>
  <ellipse transform="scale(-1,1)" cx="-448.26" cy="418.49" rx="9.6151" ry="9.2264" fill="#455a64" fill-rule="evenodd"/>
  <path d="m386.77 404.8c1.5458 2.8416 5.2139 6.1322 7.408 7.3146l43.764 3.3589c-0.33457 1.5225-0.36355 3.3383-0.26095 5.2803l-43.399 0.70429c-3.279 1.163-5.7602 3.911-7.5522 6.297-4.4219 2.5391-5.9315-25.666 0.0408-22.955z" fill="#455a64" fill-rule="evenodd"/>
  <path d="m572.4 191.38c30.643-1.2274 37.894 1.994 56.961 16.426 6.0142-14.991 0.50302-31.037-6.6657-36.348-20.662-9.2295-42.721-5.5645-50.589 9.3238-1.4196 2.6863-0.2841 7.5052 0.29401 10.598z" fill="#ab47bc" fill-rule="evenodd"/>
  <path d="m584.66 182.16h-46.972c1.5041 3.9239 3.4437 7.5449 8.7649 8.8134h38.891z" fill="#ab47bc" fill-rule="evenodd"/>
  <rect x="-41.42" y="86.225" width="700.82" height="6.5884" ry=".19264" fill="#8e24aa" fill-rule="evenodd"/>
  <rect transform="matrix(.87408 .48579 -.51435 .85758 0 0)" x="479.45" y="-5.1151" width="6.6515" height="53.911" ry="1.9905" fill="#607d8b" fill-rule="evenodd"/>
  <rect transform="matrix(.87408 -.48579 -.51435 -.85758 0 0)" x="188.89" y="-498.88" width="6.6515" height="53.911" ry="1.9905" fill="#607d8b" fill-rule="evenodd"/>
  <rect x="396.96" y="221.54" width="26.264" height="8.525" ry="1.7683" fill="#607d8b" fill-rule="evenodd"/>
  <rect x="396.96" y="277.97" width="26.264" height="8.525" ry="1.7683" fill="#607d8b" fill-rule="evenodd"/>
  <rect x="396.96" y="335.11" width="26.264" height="8.525" ry="1.7683" fill="#607d8b" fill-rule="evenodd"/>
  <path d="m-43.295 119.37h102.14c-1.9498 9.6108-5.6456 24.102-12.143 24.286h-79.107c-6.4742 0.26179-9.961-16.176-10.893-24.286z" fill="#ba68c8" fill-rule="evenodd"/>
  <path d="m58.226 119.37h102.14c-1.9498 9.6108-5.6456 24.102-12.143 24.286h-79.107c-6.4742 0.26179-9.961-16.176-10.893-24.286z" fill="#ab47bc" fill-rule="evenodd"/>
  <path d="m159.75 119.37h102.14c-1.9498 9.6108-5.6456 24.102-12.143 24.286h-79.107c-6.4742 0.26179-9.961-16.176-10.893-24.286z" fill="#ba68c8" fill-rule="evenodd"/>
  <path d="m261.77 119.37h102.14c-1.9498 9.6108-5.6456 24.102-12.143 24.286h-79.107c-6.4742 0.26179-9.961-16.176-10.893-24.286z" fill="#ab47bc" fill-rule="evenodd"/>
  <path d="m464.63 119.37h99.112c-1.8919 9.6108-5.4781 24.102-11.783 24.286h-76.76c-6.2821 0.26179-9.6655-16.176-10.57-24.286z" fill="#ab47bc" fill-rule="evenodd"/>
  <path d="m563.59 119.37h97.471c-1.8606 9.6108-5.3874 24.102-11.587 24.286h-75.489c-6.178 0.26179-9.5054-16.176-10.395-24.286z" fill="#ba68c8" fill-rule="evenodd"/>
  <path d="m363.2 119.37h102.14c-1.9498 9.6108-5.6456 24.102-12.143 24.286h-79.107c-6.4742 0.26179-9.961-16.176-10.893-24.286z" fill="#ba68c8" fill-rule="evenodd"/>
  <path d="m-41.382 88.422-11.743 9.8174 12.122 31.567z" fill="#ba68c8" fill-rule="evenodd"/>
  <path d="m656.38 88.422 11.743 9.8174-12.122 31.567z" fill="#ba68c8" fill-rule="evenodd"/>
 </g>
</svg>
