<?xml version='1.0' encoding='utf-8'?>
<svg xmlns="http://www.w3.org/2000/svg" width="1000" height="1000" viewBox="0 0 264.58333 264.58334" version="1.1" id="svg8"> <defs id="defs2"> </defs> <metadata id="metadata5"> </metadata> <g id="layer1" transform="translate(0,-32.41665)"> <path style="opacity:1;fill:#ff6600;fill-opacity:1;stroke:#c83771;stroke-width:0;stroke-linecap:round;stroke-linejoin:round;stroke-miterlimit:4;stroke-dasharray:none;stroke-dashoffset:0;stroke-opacity:1" d="m 58.737498,211.51526 v 4.49792 c 0,7.47554 6.01821,13.49374 13.49375,13.49374 H 198.70208 c 7.47554,0 13.49375,-6.0182 13.49375,-13.49374 v -4.49792 z" id="rect815"/> <path style="opacity:1;fill:#ff6600;fill-opacity:1;stroke:#c83771;stroke-width:0;stroke-linecap:round;stroke-linejoin:round;stroke-miterlimit:4;stroke-dasharray:none;stroke-dashoffset:0;stroke-opacity:1" d="M 135.46666,108.30359 A 76.729171,50.270836 0 0 0 58.737499,158.57442 H 212.19583 a 76.729171,50.270836 0 0 0 -76.72917,-50.27083 z" id="path826"/> <rect style="opacity:1;fill:#502d16;fill-opacity:1;stroke:#c83771;stroke-width:0;stroke-linecap:round;stroke-linejoin:round;stroke-miterlimit:4;stroke-dasharray:none;stroke-dashoffset:0;stroke-opacity:1" id="rect831" width="153.45833" height="16.139587" x="58.737499" y="188.7776" rx="5.2916665" ry="5.2916665"/> <path style="opacity:1;fill:#ffcc00;fill-opacity:1;stroke:#c83771;stroke-width:0;stroke-linecap:round;stroke-linejoin:round;stroke-miterlimit:4;stroke-dasharray:none;stroke-dashoffset:0;stroke-opacity:1" d="m 62.445282,181.36205 c -2.054096,0 -3.707784,1.65369 -3.707784,3.70778 0,2.0541 1.653688,3.70779 3.707784,3.70779 H 187.58545 l 8.60774,8.60774 c 1.45247,1.45247 3.79114,1.45247 5.24361,0 l 9.39116,-9.39167 c 0.0766,-0.0766 0.14759,-0.15645 0.216,-0.23772 0.70891,-0.67454 1.15187,-1.62581 1.15187,-2.68614 0,-2.05409 -1.65369,-3.70778 -3.70778,-3.70778 z" id="rect833"/> <rect ry="5.2916665" rx="5.2916665" y="165.17249" x="58.737499" height="10.526927" width="76.729164" id="rect843" style="opacity:1;fill:#ff2a2a;fill-opacity:1;stroke:#c83771;stroke-width:0;stroke-linecap:round;stroke-linejoin:round;stroke-miterlimit:4;stroke-dasharray:none;stroke-dashoffset:0;stroke-opacity:1"/> <rect style="opacity:1;fill:#ff2a2a;fill-opacity:1;stroke:#c83771;stroke-width:0;stroke-linecap:round;stroke-linejoin:round;stroke-miterlimit:4;stroke-dasharray:none;stroke-dashoffset:0;stroke-opacity:1" id="rect845" width="76.729164" height="10.526927" x="135.46666" y="165.17249" rx="5.2916665" ry="5.2916665"/> <rect style="opacity:1;fill:#d35f8d;fill-opacity:1;stroke:#c83771;stroke-width:0;stroke-linecap:round;stroke-linejoin:round;stroke-miterlimit:4;stroke-dasharray:none;stroke-dashoffset:0;stroke-opacity:1" id="rect847" width="76.729164" height="6.5980649" x="58.737499" y="204.91719" rx="3.2990324" ry="3.2990324"/> <rect ry="3.2990324" rx="3.2990324" y="204.91719" x="135.46666" height="6.5980649" width="76.729164" id="rect851" style="opacity:1;fill:#d35f8d;fill-opacity:1;stroke:#c83771;stroke-width:0;stroke-linecap:round;stroke-linejoin:round;stroke-miterlimit:4;stroke-dasharray:none;stroke-dashoffset:0;stroke-opacity:1"/> <rect ry="2.831311" rx="2.831311" y="175.69942" x="58.737499" height="5.662622" width="153.45833" id="rect855" style="opacity:1;fill:#5aa02c;fill-opacity:1;stroke:#c83771;stroke-width:0;stroke-linecap:round;stroke-linejoin:round;stroke-miterlimit:4;stroke-dasharray:none;stroke-dashoffset:0;stroke-opacity:1"/> <path style="opacity:1;fill:#5aa02c;fill-opacity:1;stroke:#c83771;stroke-width:0;stroke-linecap:round;stroke-linejoin:round;stroke-miterlimit:4;stroke-dasharray:none;stroke-dashoffset:0;stroke-opacity:1" d="m 177.51061,178.68369 0.11162,0.97772 -5.18625,-0.26459 0.0284,1.09606 -5.2498,-0.18965 -5.2e-4,0.15503 -5.33146,-0.0326 c 0,0 0.006,0.12506 0.007,0.14469 l -4.81573,-0.1297 -0.32401,-0.009 -5.2e-4,0.003 -5.38985,-0.10232 -0.006,0.24856 -5.0338,-0.31833 -0.0537,0.21601 -4.81625,-0.005 -5.29683,-0.11058 h -0.01 l -0.62167,-0.0129 -5.1e-4,0.015 -5.4312,0.0202 0.0284,0.32918 -4.77025,-0.13643 0.0822,-0.17518 -5.60689,-0.0233 -0.0284,0.12144 -5.41465,-0.0512 -0.0165,0.15865 -4.23436,-0.0377 -5.65289,-0.16329 -0.0196,-5.2e-4 -0.75809,-0.0217 v 0.008 l -5.057054,-0.0899 -0.03514,0.17001 -5.331974,-0.1235 -0.03049,0.21704 -4.580599,-0.0253 -5.387269,-0.16227 h -0.0047 l -0.772046,-0.0232 0.001,0.0191 -4.99401,-0.0253 v 5.1e-4 l -4.922182,-0.0212 -0.579292,-0.003 -5.18e-4,0.0171 -4.241599,0.108 -6.316927,-0.0724 -0.0646,0.98289 a 1.3229159,1.3229159 0 0 0 -1.320332,1.32292 1.3229159,1.3229159 0 0 0 1.322917,1.32291 1.3229159,1.3229159 0 0 0 1.322917,-1.32291 1.3229159,1.3229159 0 0 0 -5.16e-4,-0.014 h 10e-4 a 1.3229159,1.3229159 0 0 1 1.3224,-1.30896 1.3229159,1.3229159 0 0 1 1.322917,1.32033 1.3229159,1.3229159 0 0 0 0,0.003 1.3229159,1.3229159 0 0 0 1.322917,1.32291 1.3229159,1.3229159 0 0 0 1.322916,-1.32291 1.3229159,1.3229159 0 0 0 -5.16e-4,-0.009 h 0.001 a 1.3229159,1.3229159 0 0 1 1.322401,-1.31413 1.3229159,1.3229159 0 0 1 1.322917,1.32136 1.3229159,1.3229159 0 0 0 0,0.002 1.3229159,1.3229159 0 0 0 1.322916,1.32291 1.3229159,1.3229159 0 0 0 1.322917,-1.32291 1.3229159,1.3229159 0 0 0 0,-0.007 h 5.16e-4 a 1.3229159,1.3229159 0 0 1 1.3224,-1.31568 1.3229159,1.3229159 0 0 1 1.322917,1.31671 h 5.16e-4 a 1.3229159,1.3229159 0 0 0 -5.16e-4,0.006 1.3229159,1.3229159 0 0 0 1.322917,1.32291 1.3229159,1.3229159 0 0 0 1.322916,-1.32291 1.3229159,1.3229159 0 0 0 0,-0.003 1.3229159,1.3229159 0 0 1 1.322917,-1.31981 1.3229159,1.3229159 0 0 1 1.322917,1.31981 1.3229159,1.3229159 0 0 0 0,0.003 1.3229159,1.3229159 0 0 0 1.322916,1.32291 1.3229159,1.3229159 0 0 0 1.322917,-1.32291 1.3229159,1.3229159 0 0 0 0,-0.005 1.3229159,1.3229159 0 0 1 1.322917,-1.31775 1.3229159,1.3229159 0 0 1 1.322916,1.32292 1.3229159,1.3229159 0 0 1 -5.16e-4,0.008 h 5.16e-4 a 1.3229159,1.3229159 0 0 0 1.322917,1.31516 1.3229159,1.3229159 0 0 0 1.322917,-1.32291 1.3229159,1.3229159 0 0 1 1.322916,-1.32292 1.3229159,1.3229159 0 0 1 1.322917,1.3224 1.3229159,1.3229159 0 0 1 0,5.2e-4 1.3229159,1.3229159 0 0 0 1.322917,1.32291 1.3229159,1.3229159 0 0 0 1.322916,-1.32291 1.3229159,1.3229159 0 0 0 0,-0.004 1.3229159,1.3229159 0 0 1 1.322917,-1.3193 1.3229159,1.3229159 0 0 1 1.322917,1.3162 h 5.15e-4 a 1.322916,1.322916 0 0 0 -5.15e-4,0.007 1.322916,1.322916 0 0 0 1.322916,1.32291 1.322916,1.322916 0 0 0 1.322917,-1.32291 1.322916,1.322916 0 0 0 0,-0.004 1.3229159,1.3229159 0 0 1 1.322916,-1.31878 1.3229159,1.3229159 0 0 1 1.32292,1.32292 1.322916,1.322916 0 0 0 1.32291,1.32291 1.322916,1.322916 0 0 0 1.32292,-1.32291 1.3229159,1.3229159 0 0 1 1.32292,-1.32292 1.3229159,1.3229159 0 0 1 1.32291,1.3193 1.322916,1.322916 0 0 0 0,0.004 1.322916,1.322916 0 0 0 1.32292,1.32291 1.322916,1.322916 0 0 0 1.32292,-1.32291 1.322916,1.322916 0 0 0 -5.2e-4,-0.008 h 0.001 a 1.3229159,1.3229159 0 0 1 1.3224,-1.31465 1.3229159,1.3229159 0 0 1 1.32292,1.32292 1.3229159,1.3229159 0 0 1 -5.2e-4,0.0109 h 10e-4 a 1.322916,1.322916 0 0 0 1.3224,1.31206 1.322916,1.322916 0 0 0 1.32291,-1.32291 1.322916,1.322916 0 0 1 1.32292,-1.32292 1.322916,1.322916 0 0 1 1.32292,1.32292 1.322916,1.322916 0 0 1 -5.2e-4,0.01 h 0.001 a 1.322916,1.322916 0 0 0 1.3224,1.3131 1.322916,1.322916 0 0 0 1.32292,-1.32291 1.322916,1.322916 0 0 1 1.32292,-1.32292 1.322916,1.322916 0 0 1 1.32291,1.31775 1.322916,1.322916 0 0 0 0,0.005 1.322916,1.322916 0 0 0 1.32292,1.32291 1.322916,1.322916 0 0 0 1.3224,-1.31516 h 5.2e-4 a 1.322916,1.322916 0 0 1 0,-0.008 1.322916,1.322916 0 0 1 1.32291,-1.32292 1.322916,1.322916 0 0 1 1.32292,1.32292 1.322916,1.322916 0 0 0 0,0.002 1.322916,1.322916 0 0 0 1.32292,1.32136 1.322916,1.322916 0 0 0 1.32291,-1.32291 1.322916,1.322916 0 0 0 0,-0.002 1.322916,1.322916 0 0 1 1.32292,-1.32085 1.322916,1.322916 0 0 1 1.3224,1.31465 h 0.001 a 1.322916,1.322916 0 0 0 -5.1e-4,0.008 1.322916,1.322916 0 0 0 1.32291,1.32291 1.322916,1.322916 0 0 0 1.3224,-1.31465 h 0.001 a 1.322916,1.322916 0 0 1 -5.2e-4,-0.008 1.322916,1.322916 0 0 1 1.32292,-1.32292 1.322916,1.322916 0 0 1 1.32291,1.32292 1.322916,1.322916 0 0 1 -5.1e-4,0.007 h 5.1e-4 a 1.322916,1.322916 0 0 0 1.32292,1.3162 1.322916,1.322916 0 0 0 1.32292,-1.32291 1.322916,1.322916 0 0 0 0,-0.004 1.322916,1.322916 0 0 1 1.32291,-1.31878 1.322916,1.322916 0 0 1 1.3224,1.31103 h 0.001 a 1.322916,1.322916 0 0 0 -5.2e-4,0.0119 1.322916,1.322916 0 0 0 1.32292,1.32291 1.322916,1.322916 0 0 0 1.3224,-1.31568 h 5.1e-4 a 1.322916,1.322916 0 0 1 0,-0.007 1.322916,1.322916 0 0 1 1.32292,-1.32292 1.322916,1.322916 0 0 1 1.32292,1.32292 1.322916,1.322916 0 0 0 1.32291,1.32291 1.322916,1.322916 0 0 0 1.32292,-1.32291 1.322916,1.322916 0 0 1 1.32292,-1.32292 1.322916,1.322916 0 0 1 1.32291,1.32033 1.3229161,1.3229161 0 0 0 0,0.003 1.3229161,1.3229161 0 0 0 1.32292,1.32291 1.3229161,1.3229161 0 0 0 1.32292,-1.32291 1.322916,1.322916 0 0 1 1.32291,-1.32292 1.322916,1.322916 0 0 1 1.32292,1.32292 1.3229161,1.3229161 0 0 0 1.32292,1.32291 1.3229161,1.3229161 0 0 0 1.3224,-1.31723 h 5.1e-4 a 1.322916,1.322916 0 0 1 0,-0.006 1.322916,1.322916 0 0 1 1.32292,-1.32292 1.322916,1.322916 0 0 1 1.32292,1.32292 1.3229161,1.3229161 0 0 0 1.32291,1.32291 1.3229161,1.3229161 0 0 0 1.32292,-1.32291 1.322916,1.322916 0 0 1 1.32292,-1.32292 1.322916,1.322916 0 0 1 1.32291,1.31568 h 5.2e-4 a 1.3229161,1.3229161 0 0 0 -5.2e-4,0.007 1.3229161,1.3229161 0 0 0 1.32292,1.32291 1.3229161,1.3229161 0 0 0 1.32292,-1.32291 1.3229161,1.3229161 0 0 0 -5.2e-4,-0.009 h 10e-4 a 1.3229161,1.3229161 0 0 1 1.3224,-1.31361 1.3229161,1.3229161 0 0 1 1.32292,1.32292 1.3229161,1.3229161 0 0 1 0,0.003 1.3229161,1.3229161 0 0 0 1.32292,1.31981 1.3229161,1.3229161 0 0 0 1.32291,-1.32291 1.3229161,1.3229161 0 0 1 0,-5.2e-4 1.3229161,1.3229161 0 0 1 1.32292,-1.3224 1.3229161,1.3229161 0 0 1 1.32292,1.32292 1.3229161,1.3229161 0 0 0 1.32291,1.32291 1.3229161,1.3229161 0 0 0 1.32292,-1.32291 1.3229161,1.3229161 0 0 1 1.32292,-1.32292 1.3229161,1.3229161 0 0 1 1.32291,1.31981 1.3229161,1.3229161 0 0 0 0,0.003 1.3229161,1.3229161 0 0 0 1.32292,1.32291 1.3229161,1.3229161 0 0 0 1.32292,-1.32291 1.3229161,1.3229161 0 0 0 0,-0.004 1.3229161,1.3229161 0 0 1 1.32291,-1.3193 1.3229161,1.3229161 0 0 1 1.32292,1.31671 h 5.2e-4 a 1.3229161,1.3229161 0 0 0 -5.2e-4,0.006 1.3229161,1.3229161 0 0 0 1.32292,1.32291 1.3229161,1.3229161 0 0 0 1.32291,-1.32291 1.3229161,1.3229161 0 0 0 0,-0.002 1.3229161,1.3229161 0 0 1 1.32292,-1.32085 1.3229161,1.3229161 0 0 1 1.32292,1.32033 1.3229161,1.3229161 0 0 0 0,0.003 1.3229161,1.3229161 0 0 0 1.32291,1.32291 1.3229161,1.3229161 0 0 0 1.32188,-1.30534 h 0.002 a 1.3229161,1.3229161 0 0 1 -5.2e-4,-0.0176 1.3229161,1.3229161 0 0 1 1.32292,-1.32292 1.3229161,1.3229161 0 0 1 1.32291,1.32292 1.3229161,1.3229161 0 0 0 1.32292,1.32291 1.3229161,1.3229161 0 0 0 1.32292,-1.32291 1.3229161,1.3229161 0 0 1 1.32291,-1.32292 1.3229161,1.3229161 0 0 1 1.32292,1.32292 1.3229161,1.3229161 0 0 1 -5.2e-4,0.009 h 0.001 a 1.3229162,1.3229162 0 0 0 1.3224,1.31361 1.3229162,1.3229162 0 0 0 1.32291,-1.32291 1.3229162,1.3229162 0 0 0 -1.09347,-1.30173 l -1.0604,-1.61231 -4.30878,0.11111 -0.0238,0.23357 -5.17385,-0.22737 -0.0294,0.18862 -1.61386,0.13435 -3.11247,0.65888 0.0615,-0.32815 -3.66283,-0.64492 -2.13114,0.96222 0.23358,-2.03554 -5.47253,-0.0584 -0.0801,0.5147 z" id="circle865"/> <path style="fill:#5aa02c;fill-opacity:1;stroke:none;stroke-width:0.26458332px;stroke-linecap:butt;stroke-linejoin:miter;stroke-opacity:1" d="m 210.79885,183.12468 1.22737,-3.62305 -2.25298,-0.78694 -1.5627,2.32338 1.62058,1.83554 z" id="path1125"/> <path id="path1127" d="m 60.134473,183.12468 -1.22737,-3.62305 2.25298,-0.78694 1.5627,2.32338 -1.62058,1.83554 z" style="fill:#5aa02c;fill-opacity:1;stroke:none;stroke-width:0.26458332px;stroke-linecap:butt;stroke-linejoin:miter;stroke-opacity:1"/> <g id="g1138" transform="translate(3.0467529e-6,-30.1625)"> <rect style="opacity:1;fill:#165016;fill-opacity:1;stroke:#c83771;stroke-width:0;stroke-linecap:round;stroke-linejoin:round;stroke-miterlimit:4;stroke-dasharray:none;stroke-dashoffset:0;stroke-opacity:1" id="rect1129" width="51.152779" height="6.5980649" x="58.737499" y="188.73692" rx="3.2990327" ry="3.2990324"/> <rect ry="3.2990324" rx="3.2990327" y="188.73692" x="109.89027" height="6.5980649" width="51.152779" id="rect1131" style="opacity:1;fill:#165016;fill-opacity:1;stroke:#c83771;stroke-width:0;stroke-linecap:round;stroke-linejoin:round;stroke-miterlimit:4;stroke-dasharray:none;stroke-dashoffset:0;stroke-opacity:1"/> <rect style="opacity:1;fill:#165016;fill-opacity:1;stroke:#c83771;stroke-width:0;stroke-linecap:round;stroke-linejoin:round;stroke-miterlimit:4;stroke-dasharray:none;stroke-dashoffset:0;stroke-opacity:1" id="rect1133" width="51.152779" height="6.5980649" x="161.04305" y="188.73692" rx="3.2990327" ry="3.2990324"/> </g> <g id="g1366" transform="translate(0,-30.1625)" style="fill:#ffeeaa"> <path id="path1140" d="m 137.8016,143.59346 c 0,-1.28954 -1.04538,-2.33493 -2.33493,-2.33493 -1.28955,0 -2.33493,1.04539 -2.33493,2.33493 0,1.28955 1.04538,4.25078 2.33493,4.25078 1.28955,0 2.33493,-2.96123 2.33493,-4.25078 z" style="opacity:1;fill:#ffeeaa;fill-opacity:1;stroke:none;stroke-width:0;stroke-linecap:round;stroke-linejoin:round;stroke-miterlimit:4;stroke-dasharray:none;stroke-dashoffset:0;stroke-opacity:1"/> <path style="opacity:1;fill:#ffeeaa;fill-opacity:1;stroke:none;stroke-width:0;stroke-linecap:round;stroke-linejoin:round;stroke-miterlimit:4;stroke-dasharray:none;stroke-dashoffset:0;stroke-opacity:1" d="m 146.47,155.72186 c -0.33376,-1.24561 -1.61409,-1.98482 -2.85969,-1.65106 -1.24561,0.33377 -1.98481,1.61411 -1.65105,2.8597 0.33376,1.24561 2.10995,3.83538 3.35555,3.50163 1.24561,-0.33377 1.48895,-3.46466 1.15519,-4.71027 z" id="path1184"/> <path id="path1186" d="m 156.58911,142.55433 c -0.64478,-1.11678 -2.0728,-1.49942 -3.18958,-0.85464 -1.11678,0.64476 -1.49941,2.0728 -0.85464,3.18958 0.64478,1.11679 3.03072,3.1586 4.1475,2.51382 1.11678,-0.64477 0.54149,-3.73196 -0.10328,-4.84876 z" style="opacity:1;fill:#ffeeaa;fill-opacity:1;stroke:none;stroke-width:0;stroke-linecap:round;stroke-linejoin:round;stroke-miterlimit:4;stroke-dasharray:none;stroke-dashoffset:0;stroke-opacity:1"/> <path style="opacity:1;fill:#ffeeaa;fill-opacity:1;stroke:none;stroke-width:0;stroke-linecap:round;stroke-linejoin:round;stroke-miterlimit:4;stroke-dasharray:none;stroke-dashoffset:0;stroke-opacity:1" d="m 167.17157,155.19659 c -0.64477,-1.11678 -2.0728,-1.49943 -3.18957,-0.85466 -1.11679,0.64478 -1.49942,2.07281 -0.85465,3.18959 0.64478,1.11679 3.03073,3.1586 4.1475,2.51383 1.11678,-0.64478 0.5415,-3.73196 -0.10328,-4.84876 z" id="path1188"/> <path style="opacity:1;fill:#ffeeaa;fill-opacity:1;stroke:none;stroke-width:0;stroke-linecap:round;stroke-linejoin:round;stroke-miterlimit:4;stroke-dasharray:none;stroke-dashoffset:0;stroke-opacity:1" d="m 187.78532,154.8505 c -0.91186,-0.91184 -2.39026,-0.91186 -3.3021,0 -0.91185,0.91184 -0.91184,2.39024 0,3.30209 0.91186,0.91186 3.74496,2.26657 4.65681,1.35471 0.91184,-0.91184 -0.44287,-3.74494 -1.35471,-4.6568 z" id="path1194"/> <path id="path1196" d="m 198.88806,167.96275 c -0.64478,-1.11678 -2.0728,-1.49943 -3.18958,-0.85464 -1.11679,0.64476 -1.49941,2.07279 -0.85464,3.18957 0.64478,1.11681 3.03072,3.1586 4.1475,2.51382 1.11678,-0.64476 0.54149,-3.73195 -0.10328,-4.84875 z" style="opacity:1;fill:#ffeeaa;fill-opacity:1;stroke:none;stroke-width:0;stroke-linecap:round;stroke-linejoin:round;stroke-miterlimit:4;stroke-dasharray:none;stroke-dashoffset:0;stroke-opacity:1"/> <path style="opacity:1;fill:#ffeeaa;fill-opacity:1;stroke:none;stroke-width:0;stroke-linecap:round;stroke-linejoin:round;stroke-miterlimit:4;stroke-dasharray:none;stroke-dashoffset:0;stroke-opacity:1" d="m 209.9704,181.12202 c -0.33376,-1.24561 -1.61409,-1.98482 -2.85969,-1.65106 -1.24561,0.33377 -1.98481,1.61411 -1.65105,2.8597 0.33376,1.24561 2.10995,3.83538 3.35555,3.50163 1.24561,-0.33377 1.48895,-3.46466 1.15519,-4.71027 z" id="path1198"/> <path id="path1202" d="m 177.75591,167.95449 c -0.64478,-1.11678 -2.0728,-1.49942 -3.18958,-0.85464 -1.11678,0.64476 -1.49941,2.0728 -0.85464,3.18958 0.64478,1.11679 3.03072,3.1586 4.1475,2.51382 1.11678,-0.64477 0.54149,-3.73196 -0.10328,-4.84876 z" style="opacity:1;fill:#ffeeaa;fill-opacity:1;stroke:none;stroke-width:0;stroke-linecap:round;stroke-linejoin:round;stroke-miterlimit:4;stroke-dasharray:none;stroke-dashoffset:0;stroke-opacity:1"/> <path style="opacity:1;fill:#ffeeaa;fill-opacity:1;stroke:none;stroke-width:0;stroke-linecap:round;stroke-linejoin:round;stroke-miterlimit:4;stroke-dasharray:none;stroke-dashoffset:0;stroke-opacity:1" d="m 188.8036,181.12202 c -0.33376,-1.24561 -1.61409,-1.98482 -2.85969,-1.65106 -1.24561,0.33377 -1.98481,1.61411 -1.65105,2.8597 0.33376,1.24561 2.10995,3.83538 3.35555,3.50163 1.24561,-0.33377 1.48895,-3.46466 1.15519,-4.71027 z" id="path1204"/> <path id="path1206" d="m 167.6368,181.12202 c -0.33376,-1.24561 -1.61409,-1.98482 -2.85969,-1.65106 -1.24561,0.33377 -1.98481,1.61411 -1.65105,2.8597 0.33376,1.24561 2.10995,3.83538 3.35555,3.50163 1.24561,-0.33377 1.48895,-3.46466 1.15519,-4.71027 z" style="opacity:1;fill:#ffeeaa;fill-opacity:1;stroke:none;stroke-width:0;stroke-linecap:round;stroke-linejoin:round;stroke-miterlimit:4;stroke-dasharray:none;stroke-dashoffset:0;stroke-opacity:1"/> <path style="opacity:1;fill:#ffeeaa;fill-opacity:1;stroke:none;stroke-width:0;stroke-linecap:round;stroke-linejoin:round;stroke-miterlimit:4;stroke-dasharray:none;stroke-dashoffset:0;stroke-opacity:1" d="m 157.0534,168.42194 c -0.33376,-1.24561 -1.61409,-1.98482 -2.85969,-1.65106 -1.24561,0.33376 -1.98481,1.6141 -1.65105,2.8597 0.33376,1.24561 2.10995,3.83538 3.35555,3.50162 1.24561,-0.33376 1.48895,-3.46465 1.15519,-4.71026 z" id="path1208"/> <path style="opacity:1;fill:#ffeeaa;fill-opacity:1;stroke:none;stroke-width:0;stroke-linecap:round;stroke-linejoin:round;stroke-miterlimit:4;stroke-dasharray:none;stroke-dashoffset:0;stroke-opacity:1" d="m 137.8016,168.99362 c 0,-1.28954 -1.04538,-2.33493 -2.33493,-2.33493 -1.28955,0 -2.33493,1.04539 -2.33493,2.33493 0,1.28955 1.04538,4.25078 2.33493,4.25078 1.28955,0 2.33493,-2.96123 2.33493,-4.25078 z" id="path1210"/> <path id="path1212" d="m 146.79749,181.6937 c 0,-1.28955 -1.04538,-2.33494 -2.33493,-2.33494 -1.28955,0 -2.33493,1.04539 -2.33493,2.33494 0,1.28955 1.04538,4.25078 2.33493,4.25078 1.28955,0 2.33493,-2.96123 2.33493,-4.25078 z" style="opacity:1;fill:#ffeeaa;fill-opacity:1;stroke:none;stroke-width:0;stroke-linecap:round;stroke-linejoin:round;stroke-miterlimit:4;stroke-dasharray:none;stroke-dashoffset:0;stroke-opacity:1"/> <path id="path1232" d="m 124.46334,155.72186 c 0.33376,-1.24561 1.61409,-1.98482 2.85969,-1.65106 1.24561,0.33377 1.98481,1.61411 1.65105,2.8597 -0.33376,1.24561 -2.10995,3.83538 -3.35555,3.50163 -1.24561,-0.33377 -1.48895,-3.46466 -1.15519,-4.71027 z" style="opacity:1;fill:#ffeeaa;fill-opacity:1;stroke:none;stroke-width:0;stroke-linecap:round;stroke-linejoin:round;stroke-miterlimit:4;stroke-dasharray:none;stroke-dashoffset:0;stroke-opacity:1"/> <path style="opacity:1;fill:#ffeeaa;fill-opacity:1;stroke:none;stroke-width:0;stroke-linecap:round;stroke-linejoin:round;stroke-miterlimit:4;stroke-dasharray:none;stroke-dashoffset:0;stroke-opacity:1" d="m 114.34423,142.55433 c 0.64478,-1.11678 2.0728,-1.49942 3.18958,-0.85464 1.11678,0.64476 1.49941,2.0728 0.85464,3.18958 -0.64478,1.11679 -3.03072,3.1586 -4.1475,2.51382 -1.11678,-0.64477 -0.54149,-3.73196 0.10328,-4.84876 z" id="path1234"/> <path id="path1236" d="m 103.76177,155.19659 c 0.64477,-1.11678 2.0728,-1.49943 3.18957,-0.85466 1.11679,0.64478 1.49942,2.07281 0.85465,3.18959 -0.64478,1.11679 -3.03073,3.1586 -4.1475,2.51383 -1.11678,-0.64478 -0.5415,-3.73196 0.10328,-4.84876 z" style="opacity:1;fill:#ffeeaa;fill-opacity:1;stroke:none;stroke-width:0;stroke-linecap:round;stroke-linejoin:round;stroke-miterlimit:4;stroke-dasharray:none;stroke-dashoffset:0;stroke-opacity:1"/> <path id="path1240" d="m 83.148013,154.8505 c 0.911849,-0.91185 2.390248,-0.91186 3.302097,0 0.91185,0.91184 0.911842,2.39024 -7e-6,3.30209 -0.911851,0.91186 -3.744952,2.26657 -4.656801,1.35471 -0.91185,-0.91184 0.44286,-3.74494 1.354711,-4.6568 z" style="opacity:1;fill:#ffeeaa;fill-opacity:1;stroke:none;stroke-width:0;stroke-linecap:round;stroke-linejoin:round;stroke-miterlimit:4;stroke-dasharray:none;stroke-dashoffset:0;stroke-opacity:1"/> <path style="opacity:1;fill:#ffeeaa;fill-opacity:1;stroke:none;stroke-width:0;stroke-linecap:round;stroke-linejoin:round;stroke-miterlimit:4;stroke-dasharray:none;stroke-dashoffset:0;stroke-opacity:1" d="m 72.045269,167.96275 c 0.644776,-1.11678 2.072797,-1.49943 3.189579,-0.85465 1.116784,0.64477 1.499415,2.0728 0.854639,3.18958 -0.644776,1.11681 -3.030716,3.1586 -4.147498,2.51382 -1.116784,-0.64476 -0.541495,-3.73195 0.10328,-4.84875 z" id="path1242"/> <path id="path1244" d="m 60.962927,181.12202 c 0.33376,-1.24561 1.614086,-1.98482 2.859696,-1.65106 1.24561,0.33377 1.984802,1.61411 1.651042,2.8597 -0.33376,1.24561 -2.109942,3.83538 -3.355552,3.50163 -1.24561,-0.33377 -1.488946,-3.46466 -1.155186,-4.71027 z" style="opacity:1;fill:#ffeeaa;fill-opacity:1;stroke:none;stroke-width:0;stroke-linecap:round;stroke-linejoin:round;stroke-miterlimit:4;stroke-dasharray:none;stroke-dashoffset:0;stroke-opacity:1"/> <path style="opacity:1;fill:#ffeeaa;fill-opacity:1;stroke:none;stroke-width:0;stroke-linecap:round;stroke-linejoin:round;stroke-miterlimit:4;stroke-dasharray:none;stroke-dashoffset:0;stroke-opacity:1" d="m 93.177419,167.95449 c 0.644775,-1.11678 2.072796,-1.49942 3.189579,-0.85464 1.116783,0.64476 1.499414,2.0728 0.854639,3.18958 -0.644775,1.11679 -3.030716,3.1586 -4.147499,2.51382 -1.116783,-0.64477 -0.541494,-3.73196 0.103281,-4.84876 z" id="path1246"/> <path id="path1248" d="m 82.129727,181.12202 c 0.33376,-1.24561 1.614086,-1.98482 2.859696,-1.65106 1.24561,0.33377 1.984802,1.61411 1.651042,2.8597 -0.33376,1.24561 -2.109942,3.83538 -3.355552,3.50163 -1.24561,-0.33377 -1.488946,-3.46466 -1.155186,-4.71027 z" style="opacity:1;fill:#ffeeaa;fill-opacity:1;stroke:none;stroke-width:0;stroke-linecap:round;stroke-linejoin:round;stroke-miterlimit:4;stroke-dasharray:none;stroke-dashoffset:0;stroke-opacity:1"/> <path style="opacity:1;fill:#ffeeaa;fill-opacity:1;stroke:none;stroke-width:0;stroke-linecap:round;stroke-linejoin:round;stroke-miterlimit:4;stroke-dasharray:none;stroke-dashoffset:0;stroke-opacity:1" d="m 103.29654,181.12202 c 0.33376,-1.24561 1.61409,-1.98482 2.85969,-1.65106 1.24561,0.33377 1.98481,1.61411 1.65105,2.8597 -0.33376,1.24561 -2.10995,3.83538 -3.35555,3.50163 -1.24561,-0.33377 -1.48895,-3.46466 -1.15519,-4.71027 z" id="path1250"/> <path id="path1252" d="m 113.87994,168.42194 c 0.33376,-1.24561 1.61409,-1.98482 2.85969,-1.65106 1.24561,0.33376 1.98481,1.6141 1.65105,2.8597 -0.33376,1.24561 -2.10995,3.83538 -3.35555,3.50162 -1.24561,-0.33376 -1.48895,-3.46465 -1.15519,-4.71026 z" style="opacity:1;fill:#ffeeaa;fill-opacity:1;stroke:none;stroke-width:0;stroke-linecap:round;stroke-linejoin:round;stroke-miterlimit:4;stroke-dasharray:none;stroke-dashoffset:0;stroke-opacity:1"/> <path style="opacity:1;fill:#ffeeaa;fill-opacity:1;stroke:none;stroke-width:0;stroke-linecap:round;stroke-linejoin:round;stroke-miterlimit:4;stroke-dasharray:none;stroke-dashoffset:0;stroke-opacity:1" d="m 124.13585,181.6937 c 0,-1.28955 1.04538,-2.33494 2.33493,-2.33494 1.28955,0 2.33493,1.04539 2.33493,2.33494 0,1.28955 -1.04538,4.25078 -2.33493,4.25078 -1.28955,0 -2.33493,-2.96123 -2.33493,-4.25078 z" id="path1256"/> </g> </g> </svg>