<?xml version="1.0" encoding="UTF-8"?>
<svg viewBox="0 0 512 512" xmlns="http://www.w3.org/2000/svg" xmlns:xlink="http://www.w3.org/1999/xlink">
 <defs>
  <filter id="u">
   <feGaussianBlur stdDeviation="4.1579"/>
  </filter>
  <filter id="t">
   <feGaussianBlur stdDeviation=".8472"/>
  </filter>
  <filter id="s">
   <feGaussianBlur stdDeviation=".8342"/>
  </filter>
  <filter id="r">
   <feGaussianBlur stdDeviation="1.1014"/>
  </filter>
  <filter id="q">
   <feGaussianBlur stdDeviation=".5537"/>
  </filter>
  <filter id="n">
   <feGaussianBlur stdDeviation="1.2256"/>
  </filter>
  <filter id="m">
   <feGaussianBlur stdDeviation=".6488"/>
  </filter>
  <filter id="p" x="-.12373" y="-.04262" width="1.2475" height="1.0852">
   <feGaussianBlur stdDeviation=".82"/>
  </filter>
  <filter id="o" x="-.13257" y="-.04566" width="1.2651" height="1.0913">
   <feGaussianBlur stdDeviation=".8786"/>
  </filter>
  <filter id="l" x="-.13548" y="-.06087" width="1.271" height="1.1217">
   <feGaussianBlur stdDeviation="1.0858"/>
  </filter>
  <filter id="k" x="-.48365" y="-.18241" width="1.9673" height="1.3648">
   <feGaussianBlur stdDeviation="5.2591"/>
  </filter>
  <filter id="c" x="-.104" y="-.86448" width="1.208" height="2.729">
   <feGaussianBlur stdDeviation="5.8217"/>
  </filter>
  <filter id="b" x="-.55008" y="-.47833" width="2.1002" height="1.9566">
   <feGaussianBlur stdDeviation="9.8228"/>
  </filter>
  <filter id="j" x="-.33088" y="-.19968" width="1.6618" height="1.3994">
   <feGaussianBlur stdDeviation="8.6819"/>
  </filter>
  <filter id="i" x="-.22797" y="-.14595" width="1.4559" height="1.2919">
   <feGaussianBlur stdDeviation="6.2983"/>
  </filter>
  <linearGradient id="a">
   <stop stop-color="#a80" offset="0"/>
   <stop stop-color="#d4aa00" stop-opacity="0" offset="1"/>
  </linearGradient>
  <pattern id="v" width="10" height="10" patternTransform="scale(10)" patternUnits="userSpaceOnUse">
   <path d="m2.717.81a.15,.15 0 1,0 -.3,0 .15,.15 0 1,0 .3,0"/>
   <path d="m3.198,2.33a.15,.15 0 1,0 -.3,0 .15,.15 0 1,0 .3,0"/>
   <path d="m4.568,2.415a.15,.15 0 1,0 -.3,0 .15,.15 0 1,0 .3,0"/>
   <path d="m1.994,3.029a.15,.15 0 1,0 -.3,0 .15,.15 0 1,0 .3,0"/>
   <path d="m6.23,1.363a.15,.15 0 1,0 -.3,0 .15,.15 0 1,0 .3,0"/>
   <path d="m5.969,4.413a.15,.15 0 1,0 -.3,0 .15,.15 0 1,0 .3,0"/>
   <path d="m4.455,4.048a.15,.15 0 1,0 -.3,0 .15,.15 0 1,0 .3,0"/>
   <path d="m5.691,3.045a.15,.15 0 1,0 -.3,0 .15,.15 0 1,0 .3,0"/>
   <path d="m4.935,5.527a.15,.15 0 1,0 -.3,0 .15,.15 0 1,0 .3,0"/>
   <path d="m2.817,5.184a.15,.15 0 1,0 -.3,0 .15,.15 0 1,0 .3,0"/>
   <path d="m8.115,1.448a.15,.15 0 1,0 -.3,0 .15,.15 0 1,0 .3,0"/>
   <path d="m7.197,5.049a.15,.15 0 1,0 -.3,0 .15,.15 0 1,0 .3,0"/>
   <path d="m4.49.895a.15,.15 0 1,0 -.3,0 .15,.15 0 1,0 .3,0"/>
   <path d="m7.275.34a.15,.15 0 1,0 -.3,0 .15,.15 0 1,0 .3,0"/>
   <path d="m9.703,1.049a.15,.15 0 1,0 -.3,0 .15,.15 0 1,0 .3,0"/>
   <path d="m7.156,2.689a.15,.15 0 1,0 -.3,0 .15,.15 0 1,0 .3,0"/>
   <path d="m9.059,2.689a.15,.15 0 1,0 -.3,0 .15,.15 0 1,0 .3,0"/>
   <path d="m9.465,4.407a.15,.15 0 1,0 -.3,0 .15,.15 0 1,0 .3,0"/>
   <path d="m7.97,3.87a.15,.15 0 1,0 -.3,0 .15,.15 0 1,0 .3,0"/>
   <path d="m8.42,5.948a.15,.15 0 1,0 -.3,0 .15,.15 0 1,0 .3,0"/>
   <path d="m8.123,7.428a.15,.15 0 1,0 -.3,0 .15,.15 0 1,0 .3,0"/>
   <path d="m9.492,8.072a.15,.15 0 1,0 -.3,0 .15,.15 0 1,0 .3,0"/>
   <path d="m8.356,9.315a.15,.15 0 1,0 -.3,0 .15,.15 0 1,0 .3,0"/>
   <path d="m9.832,9.475a.15,.15 0 1,0 -.3,0 .15,.15 0 1,0 .3,0"/>
   <path d="m9.838,6.186a.15,.15 0 1,0 -.3,0 .15,.15 0 1,0 .3,0"/>
   <path d="m3.529,6.296a.15,.15 0 1,0 -.3,0 .15,.15 0 1,0 .3,0"/>
   <path d="m3.021,8.204a.15,.15 0 1,0 -.3,0 .15,.15 0 1,0 .3,0"/>
   <path d="m4.74,8.719a.15,.15 0 1,0 -.3,0 .15,.15 0 1,0 .3,0"/>
   <path d="m3.331,9.671a.15,.15 0 1,0 -.3,0 .15,.15 0 1,0 .3,0"/>
   <path d="m5.884,7.315a.15,.15 0 1,0 -.3,0 .15,.15 0 1,0 .3,0"/>
   <path d="m6.857,6.513a.15,.15 0 1,0 -.3,0 .15,.15 0 1,0 .3,0"/>
   <path d="m5.88,9.67a.15,.15 0 1,0 -.3,0 .15,.15 0 1,0 .3,0"/>
   <path d="m6.685,8.373a.15,.15 0 1,0 -.3,0 .15,.15 0 1,0 .3,0"/>
   <path d="m4.52,7.154a.15,.15 0 1,0 -.3,0 .15,.15 0 1,0 .3,0"/>
   <path d="m.772,7.25a.15,.15 0 1,0 -.3,0 .15,.15 0 1,0 .3,0"/>
   <path d="m.981,5.679a.15,.15 0 1,0 -.3,0 .15,.15 0 1,0 .3,0"/>
   <path d="m1.407,8.519a.15,.15 0 1,0 -.3,0 .15,.15 0 1,0 .3,0"/>
   <path d="m2.139,6.877a.15,.15 0 1,0 -.3,0 .15,.15 0 1,0 .3,0"/>
   <path d="m.524,3.181a.15,.15 0 1,0 -.3,0 .15,.15 0 1,0 .3,0"/>
   <path d="m1.316,1.664a.15,.15 0 1,0 -.3,0 .15,.15 0 1,0 .3,0"/>
   <path d="m1.301.093a.15,.15 0 1,0 -.3,0 .15,.15 0 1,0 .3,0"/>
   <path d="m1.301,10.093a.15,.15 0 1,0 -.3,0 .15,.15 0 1,0 .3,0"/>
   <path d="m1.452,4.451a.15,.15 0 1,0 -.3,0 .15,.15 0 1,0 .3,0"/>
   <path d="m3.197,3.763a.15,.15 0 1,0 -.3,0 .15,.15 0 1,0 .3,0"/>
  </pattern>
  <pattern id="w" width="10" height="10" patternTransform="scale(10)" patternUnits="userSpaceOnUse">
   <path d="m3.017.81a.45,.45 0 1,0 -.9,0 .45,.45 0 1,0 .9,0" fill="#fff"/>
   <path d="m3.498,2.33a.45,.45 0 1,0 -.9,0 .45,.45 0 1,0 .9,0" fill="#fff"/>
   <path d="m4.868,2.415a.45,.45 0 1,0 -.9,0 .45,.45 0 1,0 .9,0" fill="#fff"/>
   <path d="m2.294,3.029a.45,.45 0 1,0 -.9,0 .45,.45 0 1,0 .9,0" fill="#fff"/>
   <path d="m6.53,1.363a.45,.45 0 1,0 -.9,0 .45,.45 0 1,0 .9,0" fill="#fff"/>
   <path d="m6.269,4.413a.45,.45 0 1,0 -.9,0 .45,.45 0 1,0 .9,0" fill="#fff"/>
   <path d="m4.755,4.048a.45,.45 0 1,0 -.9,0 .45,.45 0 1,0 .9,0" fill="#fff"/>
   <path d="m5.991,3.045a.45,.45 0 1,0 -.9,0 .45,.45 0 1,0 .9,0" fill="#fff"/>
   <path d="m5.235,5.527a.45,.45 0 1,0 -.9,0 .45,.45 0 1,0 .9,0" fill="#fff"/>
   <path d="m3.117,5.184a.45,.45 0 1,0 -.9,0 .45,.45 0 1,0 .9,0" fill="#fff"/>
   <path d="m8.415,1.448a.45,.45 0 1,0 -.9,0 .45,.45 0 1,0 .9,0" fill="#fff"/>
   <path d="m7.497,5.049a.45,.45 0 1,0 -.9,0 .45,.45 0 1,0 .9,0" fill="#fff"/>
   <path d="m4.79.895a.45,.45 0 1,0 -.9,0 .45,.45 0 1,0 .9,0" fill="#fff"/>
   <path d="m7.575.34a.45,.45 0 1,0 -.9,0 .45,.45 0 1,0 .9,0" fill="#fff"/>
   <path d="m10.003,1.049a.45,.45 0 1,0 -.9,0 .45,.45 0 1,0 .9,0" fill="#fff"/>
   <path d="m7.456,2.689a.45,.45 0 1,0 -.9,0 .45,.45 0 1,0 .9,0" fill="#fff"/>
   <path d="m9.359,2.689a.45,.45 0 1,0 -.9,0 .45,.45 0 1,0 .9,0" fill="#fff"/>
   <path d="m9.765,4.407a.45,.45 0 1,0 -.9,0 .45,.45 0 1,0 .9,0" fill="#fff"/>
   <path d="m8.27,3.87a.45,.45 0 1,0 -.9,0 .45,.45 0 1,0 .9,0" fill="#fff"/>
   <path d="m8.72,5.948a.45,.45 0 1,0 -.9,0 .45,.45 0 1,0 .9,0" fill="#fff"/>
   <path d="m8.423,7.428a.45,.45 0 1,0 -.9,0 .45,.45 0 1,0 .9,0" fill="#fff"/>
   <path d="m9.792,8.072a.45,.45 0 1,0 -.9,0 .45,.45 0 1,0 .9,0" fill="#fff"/>
   <path d="m8.656,9.315a.45,.45 0 1,0 -.9,0 .45,.45 0 1,0 .9,0" fill="#fff"/>
   <path d="m10.132,9.475a.45,.45 0 1,0 -.9,0 .45,.45 0 1,0 .9,0" fill="#fff"/>
   <path d="m10.138,6.186a.45,.45 0 1,0 -.9,0 .45,.45 0 1,0 .9,0" fill="#fff"/>
   <path d="m3.829,6.296a.45,.45 0 1,0 -.9,0 .45,.45 0 1,0 .9,0" fill="#fff"/>
   <path d="m3.321,8.204a.45,.45 0 1,0 -.9,0 .45,.45 0 1,0 .9,0" fill="#fff"/>
   <path d="m5.04,8.719a.45,.45 0 1,0 -.9,0 .45,.45 0 1,0 .9,0" fill="#fff"/>
   <path d="m3.631,9.671a.45,.45 0 1,0 -.9,0 .45,.45 0 1,0 .9,0" fill="#fff"/>
   <path d="m6.184,7.315a.45,.45 0 1,0 -.9,0 .45,.45 0 1,0 .9,0" fill="#fff"/>
   <path d="m7.157,6.513a.45,.45 0 1,0 -.9,0 .45,.45 0 1,0 .9,0" fill="#fff"/>
   <path d="m6.18,9.67a.45,.45 0 1,0 -.9,0 .45,.45 0 1,0 .9,0" fill="#fff"/>
   <path d="m6.985,8.373a.45,.45 0 1,0 -.9,0 .45,.45 0 1,0 .9,0" fill="#fff"/>
   <path d="m4.82,7.154a.45,.45 0 1,0 -.9,0 .45,.45 0 1,0 .9,0" fill="#fff"/>
   <path d="m1.072,7.25a.45,.45 0 1,0 -.9,0 .45,.45 0 1,0 .9,0" fill="#fff"/>
   <path d="m1.281,5.679a.45,.45 0 1,0 -.9,0 .45,.45 0 1,0 .9,0" fill="#fff"/>
   <path d="m1.707,8.519a.45,.45 0 1,0 -.9,0 .45,.45 0 1,0 .9,0" fill="#fff"/>
   <path d="m2.439,6.877a.45,.45 0 1,0 -.9,0 .45,.45 0 1,0 .9,0" fill="#fff"/>
   <path d="m.824,3.181a.45,.45 0 1,0 -.9,0 .45,.45 0 1,0 .9,0" fill="#fff"/>
   <path d="m1.616,1.664a.45,.45 0 1,0 -.9,0 .45,.45 0 1,0 .9,0" fill="#fff"/>
   <path d="m1.601.093a.45,.45 0 1,0 -.9,0 .45,.45 0 1,0 .9,0" fill="#fff"/>
   <path d="m1.601,10.093a.45,.45 0 1,0 -.9,0 .45,.45 0 1,0 .9,0" fill="#fff"/>
   <path d="m1.752,4.451a.45,.45 0 1,0 -.9,0 .45,.45 0 1,0 .9,0" fill="#fff"/>
   <path d="m3.497,3.763a.45,.45 0 1,0 -.9,0 .45,.45 0 1,0 .9,0" fill="#fff"/>
  </pattern>
  <radialGradient id="g" cx="209.14" cy="453.55" r="25.357" gradientTransform="matrix(1.0764 -.11732 .10836 .99411 -65.113 27.206)" gradientUnits="userSpaceOnUse">
   <stop stop-color="#fff6d5" offset="0"/>
   <stop stop-color="#fff6d5" stop-opacity="0" offset="1"/>
  </radialGradient>
  <radialGradient id="f" cx="209.14" cy="453.55" r="25.357" gradientTransform="matrix(1.0764 -.11732 .10836 .99411 -65.113 27.206)" gradientUnits="userSpaceOnUse">
   <stop stop-color="#fff" offset="0"/>
   <stop stop-color="#fff6d5" stop-opacity="0" offset="1"/>
  </radialGradient>
  <radialGradient id="d" cx="182.12" cy="326.79" r="52.75" gradientTransform="matrix(-.1151 1.9499 -1.2008 -.07088 565.88 25.761)" gradientUnits="userSpaceOnUse">
   <stop stop-color="#55d400" offset="0"/>
   <stop stop-color="#050" offset="1"/>
  </radialGradient>
  <radialGradient id="h" cx="445.47" cy="-55.36" r="79.764" gradientTransform="matrix(-.50931 .30149 -.15458 -.26112 475.91 377.24)" gradientUnits="userSpaceOnUse" xlink:href="#a"/>
  <radialGradient id="e" cx="276.78" cy="376.28" r="79.764" gradientTransform="matrix(-.50931 .30149 -.15458 -.26112 475.91 377.24)" gradientUnits="userSpaceOnUse" xlink:href="#a"/>
 </defs>
 <g transform="matrix(1.8882 0 0 1.8882 -164.04 -507.36)">
  <path transform="translate(16)" d="m275.77 521.02c0 3.6263-30.075 6.566-67.175 6.566s-67.175-2.9397-67.175-6.566 30.075-6.566 67.175-6.566 67.175 2.9397 67.175 6.566z" fill="#2b2200" filter="url(#c)"/>
  <path d="m157.86 420.22c-14.84 41.301 2.5578 86.996 46.429 101.43 22.482 8.4776 30.179 2.4475 46.488-0.37275 12.405-2.1453 24.421-0.43868 35.655-6.0558 14.888-15.97 22.561-34.477 24.286-55 2.7458-13.729 1.4172-25.549-1.9892-36.694-5.2935-26.578-26.138-40.497-35.743-63.89-6.2404-35.421-21.468-43.991-55.248-40.762-14.143 1.2891-26.575 7.3207-30.592 21.346-6.9297 13.242-21.122 61.005-29.286 80z" fill="#fc0" opacity=".84" stroke="#000"/>
  <path d="m157.86 420.22c-14.84 41.301 2.5578 86.996 46.429 101.43 22.482 8.4776 30.179 2.4475 46.488-0.37275 12.405-2.1453 24.421-0.43868 35.655-6.0558 14.888-15.97 22.561-34.477 24.286-55 2.7458-13.729 1.4172-25.549-1.9892-36.694-5.2935-26.578-26.138-40.497-35.743-63.89-6.2404-35.421-21.468-43.991-55.248-40.762-14.143 1.2891-26.575 7.3207-30.592 21.346-6.9297 13.242-21.122 61.005-29.286 80z" fill="url(#h)"/>
  <path transform="matrix(1.9465 0 0 1.9465 -205.77 -418.46)" d="m236.43 450.58c0 14.004-11.353 25.357-25.357 25.357s-25.357-11.353-25.357-25.357 11.353-25.357 25.357-25.357 25.357 11.353 25.357 25.357z" fill="url(#g)" opacity=".69"/>
  <path transform="matrix(1.2761 0 0 1.2761 -58.268 -224.38)" d="m236.43 450.58c0 14.004-11.353 25.357-25.357 25.357s-25.357-11.353-25.357-25.357 11.353-25.357 25.357-25.357 25.357 11.353 25.357 25.357z" fill="url(#f)" opacity=".5"/>
  <path d="m157.86 420.22c-14.84 41.301 2.5578 86.996 46.429 101.43 22.482 8.4776 30.179 2.4475 46.488-0.37275 12.405-2.1453 24.421-0.43868 35.655-6.0558 14.888-15.97 22.561-34.477 24.286-55 2.7458-13.729 1.4172-25.549-1.9892-36.694-5.2935-26.578-26.138-40.497-35.743-63.89-6.2404-35.421-21.468-43.991-55.248-40.762-14.143 1.2891-26.575 7.3207-30.592 21.346-6.9297 13.242-21.122 61.005-29.286 80z" fill="url(#v)" opacity=".1877"/>
  <path d="m157.86 420.22c-14.84 41.301 2.5578 86.996 46.429 101.43 22.482 8.4776 30.179 2.4475 46.488-0.37275 12.405-2.1453 24.421-0.43868 35.655-6.0558 14.888-15.97 22.561-34.477 24.286-55 2.7458-13.729 1.4172-25.549-1.9892-36.694-5.2935-26.578-26.138-40.497-35.743-63.89-6.2404-35.421-21.468-43.991-55.248-40.762-14.143 1.2891-26.575 7.3207-30.592 21.346-6.9297 13.242-21.122 61.005-29.286 80z" fill="url(#w)" filter="url(#u)" opacity=".1877"/>
  <path d="m204.64 329.33c9.1413-3.5176 16.647-7.3214 26.25-7.3214" fill="none" stroke="#000"/>
  <path d="m157.86 420.22c-14.84 41.301 2.5578 86.996 46.429 101.43 22.482 8.4776 30.179 2.4475 46.488-0.37275 12.405-2.1453 24.421-0.43868 35.655-6.0558 14.888-15.97 22.561-34.477 24.286-55 2.7458-13.729 1.4172-25.549-1.9892-36.694-5.2935-26.578-26.138-40.497-35.743-63.89-6.2404-35.421-21.468-43.991-55.248-40.762-14.143 1.2891-26.575 7.3207-30.592 21.346-6.9297 13.242-21.122 61.005-29.286 80z" fill="url(#e)" stroke="#d4aa00"/>
  <path d="m158.09 413.44c5.7889-1.3658 18.021 0.1619 22.223-4.0406 2.1657-2.1657-0.60537-10.198-1.0102-12.627-2.8355-17.013 6.772-41.397 4.5457-52.528l-25.254 30.81-0.50508 38.386z" fill="#540" filter="url(#k)"/>
  <path d="m213.93 325.22-1.6071-23.929-0.53572-0.89285c-3.5847-2.1519-6.1544-8.7334-0.71428-9.8214v-0.71429c-0.32856-4.7824 0.42363-4.6246 3.5714-7.1429l0.89285-0.71428c2.3226-3.1082 3.653-7.2603 7.8572-4.1071l0.71428-0.71429c4.9756-4.8893 9.4055-6.8332 16.786-5.3571l0.89285 0.17857c2.9199 0.60979 0 1.8462 0 3.2143l0.89286 0.17858c1.2734 0.58118 0.87208 1.4805 0.53572 2.3214l-1.0714 0.17858c-9.7508 2.3523-6.323-0.97412-11.071 5.3571l-0.71429 0.53571c-0.78388-1.2236-3.5714 3.9532-3.5714 2.5 0-1.0862 4.2684 2.3648 2.5 6.7857v0.89285c3.4779 4.7105 2.0614 11.359-1.0714 15.536l-0.71429 1.0714c-8.6836 1.7112-4.6657-1.9322-6.9643-7.6786v0.89285c2.0799 6.9987 1.0714 11.708 1.0714 19.25l-7.6786 2.1786z" fill="#520"/>
  <path d="m231.41 276.56c-3.3835 0.95325-6.021 6.881-8.5312 6.2578-0.71228-2.1985-2.6505-2.4402-3.0001-8e-3 -1.3588 3.0328-6.6771 3.908-4.6562 7.8125 0.77881 2.9719-5.2548 3.1252-2.1562 5.4688 1.5132 1.1548 3.421 4.9475 3.5938 5.25-0.0719-3.0648 1.257-5.8147 2.25-8.6875 3.3773 3.6462 5.7277 9.5261 6.75 13.469 3.947-5.0088-1.0354-10.611-0.15625-16.094-2.9003-1.344-4.0562-5.7245-0.5-7.1562 1.9784-2.0502 4.9113-4.5952 6.4062-6.3125zm-14.688 28.094c0.55645 4.5629-0.13148 11.169 1.0312 14.719 0.33194-4.9991-0.0975-10.126-0.96875-15.062l-0.0625 0.34375z" fill="#a40" filter="url(#l)" stroke="#a40"/>
  <path d="m213.21 309.15c-2.5706-0.28573-12.848 3.0313-19.643 6.4286-2.3023 1.1512-16.098-2.3412-12.5 0.35714l-1.7857-0.35714c-25.877-1.3207-46.581 5.4958-57.999 19.963-1.2017 1.5227-6.3005 7.1301-7.2917 8.8217-0.91978 1.5697 2.2532-0.78806 1.5226 0.9262-2.398 5.6271-3.7559 12.03-3.9381 19.194-0.0362 1.4226-2.026 8.8751-1.9684 10.358 0.0581 1.4962 2.1646-2.9771 2.3205-1.4202 0.41957 4.191 1.1971 8.6015 2.354 13.229 1.6592 6.6368 0.87093 14.041 3.2143 21.071 1.8892 5.6676-3.3772 28.296-8.4286 27.286h1.7857c11.594-1.3077 22.01-3.6206 30.349-7.4177 15.785-7.563 24.183-26.86 31.76-42.295 6.6556-14.208 11.091-29.977 9.1772-42.216l0.35714-1.7857c1.6262-5.6662 4.9844-15.02 11.43-20.713 4.4666-3.9444 12.746-9.0451 19.641-9.6444l-0.35714-1.7857z" fill="url(#d)"/>
  <path d="m114.29 433.43c7.0373-4.8357 16.814-20.63 22.357-32.143 13.631-28.311 46.433-91.353 75.357-91.214" fill="none" stroke="#0f0"/>
  <path d="m114.29 433.43c7.0373-4.8357 16.814-20.63 22.357-32.143 13.631-28.311 46.433-91.353 75.357-91.214" fill="none" filter="url(#s)" stroke="#0f0"/>
  <path d="m150.11 371.46-13.772-4.6655-5.1145-5.5109 5.1145 5.5109-9.0691 0.20663-6.4295 3.6217 6.4295-3.6217 9.0691-0.20663 13.772 4.6655-10.96 8.002-11.402-0.10799-7.2351-4.898 7.2351 4.898-8.9903 4.4937-3.2168 6.8892 3.2168-6.8892 8.9903-4.4937 11.402 0.10799-4.9803 10.145-6.6298 5.0859 6.6298-5.0859-0.7675 7.9646-4.5294 5.5623 4.5294-5.5623 0.7675-7.9646 4.9803-10.145 10.96-8.002" fill="none" filter="url(#n)" stroke="#0f0" stroke-width=".52812"/>
  <path d="m168.11 345.46-13.772-4.6655-5.1145-5.5109 5.1145 5.5109-9.0691 0.20663-6.4295 3.6217 6.4295-3.6217 9.0691-0.20663 13.772 4.6655-10.96 8.002-11.402-0.10799-7.2351-4.898 7.2351 4.898-8.9903 4.4937-3.2168 6.8892 3.2168-6.8892 8.9903-4.4937 11.402 0.10799-4.9803 10.145-6.6298 5.0859 6.6298-5.0859-0.7675 7.9646-4.5294 5.5623 4.5294-5.5623 0.7675-7.9646 4.9803-10.145 10.96-8.002" fill="none" filter="url(#m)" stroke="#0f0" stroke-width=".52812"/>
  <path d="m173.2 336.53-14.111-8.9051-4.2255-7.5224 4.2255 7.5224-10.173-2.206-8.1461 2.3132 8.1461-2.3132 10.173 2.206 14.111 8.9051-14.377 5.983-12.692-3.1839-6.7559-7.4082 6.7559 7.4082-11.237 2.598-5.4398 6.8217 5.4398-6.8217 11.237-2.598 12.692 3.1839-8.282 9.9802-8.763 3.8929 8.763-3.8929-2.9961 8.6795-6.5477 4.9887 6.5477-4.9887 2.9961-8.6795 8.282-9.9802 14.377-5.983" fill="none" filter="url(#r)" stroke="#0f0" stroke-width=".60604"/>
  <path d="m140.35 399.76 6.1134 8.945 1.8306 7.5561-1.8306-7.5561 4.4075 2.2159 3.5292-2.3235-3.5292 2.3235-4.4075-2.2159-6.1134-8.945 6.2286-6.0098 5.4985 3.1981 2.9269 7.4414-2.9269-7.4414 4.8684-2.6096 2.3567-6.8523-2.3567 6.8523-4.8684 2.6096-5.4985-3.1981 3.588-10.025 3.7964-3.9103-3.7964 3.9103 1.298-8.7184 2.8367-5.0111-2.8367 5.0111-1.298 8.7184-3.588 10.025-6.2286 6.0098" fill="none" filter="url(#q)" stroke="#0f0" stroke-width=".39979"/>
  <path d="m158.48 364.2 8.289-6.977 3.7906-6.788-3.7906 6.788 4.8404-0.95227 2.7764 3.1851-2.7764-3.1851-4.8404 0.95227-8.289 6.977 4.388 7.4605 6.1549-1.6058 4.816-6.3834-4.816 6.3834 3.9898 3.82 0.43202 7.2333-0.43202-7.2333-3.9898-3.82-6.1549 1.6058 0.76706 10.62 2.6082 4.7854-2.6082-4.7854-1.0885 8.747 1.3884 5.5884-1.3884-5.5884 1.0885-8.747-0.76706-10.62-4.388-7.4605" fill="none" filter="url(#o)" stroke="#0f0" stroke-width=".39979"/>
  <path d="m122.48 396.2 8.289-6.977 3.7906-6.788-3.7906 6.788 4.8404-0.95227 2.7764 3.1851-2.7764-3.1851-4.8404 0.95227-8.289 6.977 4.388 7.4605 6.1549-1.6058 4.816-6.3834-4.816 6.3834 3.9898 3.82 0.43202 7.2333-0.43202-7.2333-3.9898-3.82-6.1549 1.6058 0.76706 10.62 2.6082 4.7854-2.6082-4.7854-1.0885 8.747 1.3884 5.5884-1.3884-5.5884 1.0885-8.747-0.76706-10.62-4.388-7.4605" fill="none" filter="url(#p)" stroke="#0f0" stroke-width=".39979"/>
  <path d="m159.2 348.53-14.111-8.9051-4.2255-7.5224 4.2255 7.5224-10.173-2.206-8.1461 2.3132 8.1461-2.3132 10.173 2.206 14.111 8.9051-14.377 5.983-12.692-3.1839-6.7559-7.4082 6.7559 7.4082-11.237 2.598-5.4398 6.8217 5.4398-6.8217 11.237-2.598 12.692 3.1839-8.282 9.9802-8.763 3.8929 8.763-3.8929-2.9961 8.6795-6.5477 4.9887 6.5477-4.9887 2.9961-8.6795 8.282-9.9802 14.377-5.983" fill="none" filter="url(#t)" stroke="#0f0" stroke-width=".60604"/>
  <path transform="matrix(.44545 0 0 .44545 131.68 292.93)" d="m275.77 521.02c0 3.6263-30.075 6.566-67.175 6.566s-67.175-2.9397-67.175-6.566 30.075-6.566 67.175-6.566 67.175 2.9397 67.175 6.566z" fill="#2b2200" filter="url(#c)"/>
  <path transform="translate(2,-24)" d="m220.71 468.43c0 13.61-9.5939 24.643-21.429 24.643s-21.429-11.033-21.429-24.643 9.5939-24.643 21.429-24.643 21.429 11.033 21.429 24.643z" fill="#fff6d5" filter="url(#b)"/>
  <path transform="matrix(1.0415 0 0 1.0415 9.7339 -131.43)" d="m220.71 468.43c0 13.61-9.5939 24.643-21.429 24.643s-21.429-11.033-21.429-24.643 9.5939-24.643 21.429-24.643 21.429 11.033 21.429 24.643z" fill="#fff6d5" filter="url(#b)"/>
  <path transform="translate(-230)" d="m465.71 520.22c22.669-9.1967 52.491-36.965 62.143-103.57l0.71429 3.5714c12.295 27.319-8.204 95.437-62.857 100z" fill="#808000" filter="url(#j)" stroke="#000"/>
  <path transform="matrix(.74016 0 0 .74016 81.862 133.72)" d="m235.71 520.22c22.669-9.1967 52.491-36.965 62.143-103.57l0.71429 3.5714c12.295 27.319-8.204 95.437-62.857 100z" fill="#fc0" filter="url(#i)"/>
 </g>
</svg>
