<?xml version="1.0" encoding="UTF-8"?>
<svg width="400" height="300" version="1.1" viewBox="0 0 400.00001 300.00001" xmlns="http://www.w3.org/2000/svg">
 <g transform="translate(0 -752.36)">
  <g transform="matrix(1.2348 0 0 1.2348 343.85 789.55)" fill-rule="evenodd">
   <rect x="-249.5" y="66.362" width="266" height="45" ry="17.296" fill="#853500"/>
   <path d="m15 65.696c-6.7235-14.764-251.38-15.456-263 0 0 11.529 3.6797 22.512 10.334 32.502 6.6543 9.9898 16.283-26.014 28.182-18.459 11.898 7.5553 24.066 25.669 39.799 29.895 15.732 4.2253 34.984-19.438 52.186-19.438s34.453 23.663 50.186 19.438c15.732-4.2253 31.9-22.339 43.799-29.895 11.898-7.5553 21.527 28.448 28.182 18.459 6.6543-9.9898 10.334-20.973 10.334-32.502z" fill="#27ae60"/>
   <path d="m15 59.862c-6.7235 14.764-251.38 15.456-263 0 0-46.116 58.875-83.5 131.5-83.5s131.5 37.384 131.5 83.5z" fill="#e67e22"/>
   <rect x="-249.5" y="155.36" width="266" height="51" ry="19.602" fill="#e67e22"/>
   <rect x="-249.5" y="111.36" width="266" height="45" ry="17.296" fill="#853500"/>
   <path d="m-210.99 109.86 48.488 48.49 46-46.002 46 46.002 48.488-48.49h-188.98z" fill="#f1c40f"/>
   <path transform="translate(0 .00023528)" d="m-116.5-8.6387c-65.328 0-119.52 30.253-129.75 69.896 23.923 13.475 237.64 12.969 259.55 0.16602-10.124-39.725-64.375-70.062-129.79-70.062z" fill="#f39c12"/>
   <path transform="translate(0 .00023528)" d="m-229.9 155.36c-9.1044 0-16.698 6.1554-18.922 14.541 2.224 8.3857 9.8175 14.539 18.922 14.539h226.8c9.1044 0 16.698-6.1534 18.922-14.539-2.224-8.3857-9.8175-14.541-18.922-14.541h-226.8z" fill="#edaf4d"/>
   <ellipse cx="-181" cy="-3.6376" rx="5.9214" ry="3.0628" fill="#f9b954"/>
   <ellipse cx="-145" cy="-15.638" rx="5.9214" ry="3.0628" fill="#f9b954"/>
   <ellipse cx="-113" cy="-15.638" rx="5.9214" ry="3.0628" fill="#f9b954"/>
   <ellipse cx="-73" cy="-11.638" rx="5.9214" ry="3.0628" fill="#f9b954"/>
   <ellipse cx="-45" cy="7.3624" rx="5.9214" ry="3.0628" fill="#f9b954"/>
   <ellipse cx="-89" cy="10.362" rx="5.9214" ry="3.0628" fill="#f9b954"/>
   <ellipse cx="-127" cy="-.63756" rx="5.9214" ry="3.0628" fill="#f9b954"/>
   <ellipse cx="-166" cy="7.3624" rx="5.9214" ry="3.0628" fill="#f9b954"/>
  </g>
 </g>
</svg>
